<svg width="34" height="27" viewBox="0 0 34 27" fill="none" xmlns="http://www.w3.org/2000/svg">
<path d="M32 0.5H2C1.17157 0.5 0.5 1.17157 0.5 2V24C0.5 24.8284 1.17157 25.5 2 25.5H32C32.8284 25.5 33.5 24.8284 33.5 24V2C33.5 1.17157 32.8284 0.5 32 0.5Z" fill="url(#paint0_linear_3_36)" stroke="url(#paint1_linear_3_36)"/>
<path d="M32 3.5H2C1.17157 3.5 0.5 4.17157 0.5 5V24C0.5 24.8284 1.17157 25.5 2 25.5H32C32.8284 25.5 33.5 24.8284 33.5 24V5C33.5 4.17157 32.8284 3.5 32 3.5Z" fill="url(#paint2_linear_3_36)" stroke="#4E84D3"/>
<rect x="1" y="1" width="32" height="4" fill="url(#paint3_linear_3_36)"/>
<rect x="1" y="5" width="32" height="2" fill="url(#paint4_linear_3_36)"/>
<g filter="url(#filter0_d_3_36)">
<path d="M12.55 12.7C12.59 12.7 12.62 12.7167 12.64 12.75C12.66 12.7767 12.6633 12.81 12.65 12.85L11.12 17.87C11.1067 17.9167 11.0833 17.95 11.05 17.97C11.0233 17.99 10.9833 18 10.93 18H10.45C10.3367 18 10.2667 17.9567 10.24 17.87L9.05 14.13C9.02333 14.07 9 14.04 8.98 14.04C8.96 14.04 8.94333 14.07 8.93 14.13L7.8 17.87C7.78667 17.9167 7.76333 17.95 7.73 17.97C7.70333 17.99 7.66333 18 7.61 18H7.1C6.99333 18 6.92333 17.9567 6.89 17.87L5.31 12.85C5.30333 12.81 5.31 12.7767 5.33 12.75C5.35 12.7167 5.38333 12.7 5.43 12.7H6.02C6.06 12.7 6.09333 12.71 6.12 12.73C6.14667 12.7433 6.16667 12.77 6.18 12.81L7.37 16.7C7.39 16.7667 7.41333 16.8 7.44 16.8C7.46667 16.7933 7.49333 16.7567 7.52 16.69L8.7 12.8C8.71333 12.7667 8.73 12.7433 8.75 12.73C8.77667 12.71 8.80667 12.7 8.84 12.7H9.31C9.35 12.7 9.38333 12.71 9.41 12.73C9.43667 12.7433 9.45333 12.77 9.46 12.81L10.69 16.7C10.71 16.7667 10.7333 16.8 10.76 16.8C10.7867 16.7933 10.81 16.7567 10.83 16.69L11.98 12.81C12 12.77 12.0233 12.7433 12.05 12.73C12.0767 12.71 12.11 12.7 12.15 12.7H12.55ZM20.4113 12.7C20.4513 12.7 20.4813 12.7167 20.5013 12.75C20.5213 12.7767 20.5247 12.81 20.5113 12.85L18.9813 17.87C18.968 17.9167 18.9447 17.95 18.9113 17.97C18.8847 17.99 18.8447 18 18.7913 18H18.3113C18.198 18 18.128 17.9567 18.1013 17.87L16.9113 14.13C16.8847 14.07 16.8613 14.04 16.8413 14.04C16.8213 14.04 16.8047 14.07 16.7913 14.13L15.6613 17.87C15.648 17.9167 15.6247 17.95 15.5913 17.97C15.5647 17.99 15.5247 18 15.4713 18H14.9613C14.8547 18 14.7847 17.9567 14.7513 17.87L13.1713 12.85C13.1647 12.81 13.1713 12.7767 13.1913 12.75C13.2113 12.7167 13.2447 12.7 13.2913 12.7H13.8813C13.9213 12.7 13.9547 12.71 13.9813 12.73C14.008 12.7433 14.028 12.77 14.0413 12.81L15.2313 16.7C15.2513 16.7667 15.2747 16.8 15.3013 16.8C15.328 16.7933 15.3547 16.7567 15.3813 16.69L16.5613 12.8C16.5747 12.7667 16.5913 12.7433 16.6113 12.73C16.638 12.71 16.668 12.7 16.7013 12.7H17.1713C17.2113 12.7 17.2447 12.71 17.2713 12.73C17.298 12.7433 17.3147 12.77 17.3213 12.81L18.5513 16.7C18.5713 16.7667 18.5947 16.8 18.6213 16.8C18.648 16.7933 18.6713 16.7567 18.6913 16.69L19.8413 12.81C19.8613 12.77 19.8847 12.7433 19.9113 12.73C19.938 12.71 19.9713 12.7 20.0113 12.7H20.4113ZM28.2727 12.7C28.3127 12.7 28.3427 12.7167 28.3627 12.75C28.3827 12.7767 28.386 12.81 28.3727 12.85L26.8427 17.87C26.8293 17.9167 26.806 17.95 26.7727 17.97C26.746 17.99 26.706 18 26.6527 18H26.1727C26.0593 18 25.9893 17.9567 25.9627 17.87L24.7727 14.13C24.746 14.07 24.7227 14.04 24.7027 14.04C24.6827 14.04 24.666 14.07 24.6527 14.13L23.5227 17.87C23.5093 17.9167 23.486 17.95 23.4527 17.97C23.426 17.99 23.386 18 23.3327 18H22.8227C22.716 18 22.646 17.9567 22.6127 17.87L21.0327 12.85C21.026 12.81 21.0327 12.7767 21.0527 12.75C21.0727 12.7167 21.106 12.7 21.1527 12.7H21.7427C21.7827 12.7 21.816 12.71 21.8427 12.73C21.8693 12.7433 21.8893 12.77 21.9027 12.81L23.0927 16.7C23.1127 16.7667 23.136 16.8 23.1627 16.8C23.1893 16.7933 23.216 16.7567 23.2427 16.69L24.4227 12.8C24.436 12.7667 24.4527 12.7433 24.4727 12.73C24.4993 12.71 24.5293 12.7 24.5627 12.7H25.0327C25.0727 12.7 25.106 12.71 25.1327 12.73C25.1593 12.7433 25.176 12.77 25.1827 12.81L26.4127 16.7C26.4327 16.7667 26.456 16.8 26.4827 16.8C26.5093 16.7933 26.5327 16.7567 26.5527 16.69L27.7027 12.81C27.7227 12.77 27.746 12.7433 27.7727 12.73C27.7993 12.71 27.8327 12.7 27.8727 12.7H28.2727Z" fill="#7CAAE6" fill-opacity="0.5" shape-rendering="crispEdges"/>
</g>
<g filter="url(#filter1_d_3_36)">
<mask id="path-6-outside-1_3_36" maskUnits="userSpaceOnUse" x="9" y="7" width="16" height="17" fill="black">
<rect fill="white" x="9" y="7" width="16" height="17"/>
<path fill-rule="evenodd" clip-rule="evenodd" d="M17.3717 18.5679C18.5543 18.5679 19.1768 17.4832 19.1768 17.1642H23.4405C23.4405 17.9936 21.9363 21.439 17.3094 21.439C15.0375 21.439 12.7344 20.482 11.8941 18.7593L11.8319 18.855C9.84007 23.0022 13.0768 22.7151 15.4732 21.4709C15.4901 21.4632 15.5096 21.454 15.5307 21.4441C15.6505 21.3878 15.8202 21.3079 15.8467 21.3433C15.8842 21.3934 15.753 21.4907 15.6454 21.5704C15.6161 21.5921 15.5885 21.6126 15.5666 21.6304C13.0754 23.6566 7.43645 24.4269 11.3339 16.7176L11.3354 16.7144C11.5744 16.1944 11.8338 15.6302 12.7656 14.2931C14.6407 11.9311 15.5318 11.4013 15.9271 11.1663C16.0764 11.0776 16.1549 11.0309 16.189 10.9434C16.3135 10.6244 13.2635 11.9962 10.836 15.3139C10.836 12.1876 13.3258 9.38027 17.2783 9.38026C17.7365 9.38026 18.1726 9.4195 18.5854 9.49381C21.1375 7.78519 22.5691 7.84972 23.2849 8.19991C24.6543 8.86983 23.6584 11.2305 23.5339 11.2943C23.504 11.3096 23.5281 11.208 23.569 11.0353C23.6987 10.4881 23.9974 9.22693 23.2849 8.71033C22.0397 7.80753 19.9647 9.07722 19.1132 9.59822C19.0921 9.61111 19.0718 9.62354 19.0523 9.63547C21.9305 10.3547 23.5339 12.7994 23.5339 15.4734V16.271H15.3798C15.3798 17.866 16.189 18.5679 17.3717 18.5679ZM19.3013 14.3568C19.3013 13.2722 18.6788 12.3152 17.3717 12.3152C16.0645 12.3152 15.3176 13.2084 15.3176 14.3568H19.3013Z"/>
</mask>
<path fill-rule="evenodd" clip-rule="evenodd" d="M17.3717 18.5679C18.5543 18.5679 19.1768 17.4832 19.1768 17.1642H23.4405C23.4405 17.9936 21.9363 21.439 17.3094 21.439C15.0375 21.439 12.7344 20.482 11.8941 18.7593L11.8319 18.855C9.84007 23.0022 13.0768 22.7151 15.4732 21.4709C15.4901 21.4632 15.5096 21.454 15.5307 21.4441C15.6505 21.3878 15.8202 21.3079 15.8467 21.3433C15.8842 21.3934 15.753 21.4907 15.6454 21.5704C15.6161 21.5921 15.5885 21.6126 15.5666 21.6304C13.0754 23.6566 7.43645 24.4269 11.3339 16.7176L11.3354 16.7144C11.5744 16.1944 11.8338 15.6302 12.7656 14.2931C14.6407 11.9311 15.5318 11.4013 15.9271 11.1663C16.0764 11.0776 16.1549 11.0309 16.189 10.9434C16.3135 10.6244 13.2635 11.9962 10.836 15.3139C10.836 12.1876 13.3258 9.38027 17.2783 9.38026C17.7365 9.38026 18.1726 9.4195 18.5854 9.49381C21.1375 7.78519 22.5691 7.84972 23.2849 8.19991C24.6543 8.86983 23.6584 11.2305 23.5339 11.2943C23.504 11.3096 23.5281 11.208 23.569 11.0353C23.6987 10.4881 23.9974 9.22693 23.2849 8.71033C22.0397 7.80753 19.9647 9.07722 19.1132 9.59822C19.0921 9.61111 19.0718 9.62354 19.0523 9.63547C21.9305 10.3547 23.5339 12.7994 23.5339 15.4734V16.271H15.3798C15.3798 17.866 16.189 18.5679 17.3717 18.5679ZM19.3013 14.3568C19.3013 13.2722 18.6788 12.3152 17.3717 12.3152C16.0645 12.3152 15.3176 13.2084 15.3176 14.3568H19.3013Z" fill="url(#paint5_linear_3_36)"/>
<path d="M19.1768 17.1642V16.8642H18.8768V17.1642H19.1768ZM23.4405 17.1642H23.7405V16.8642H23.4405V17.1642ZM11.8941 18.7593L12.1638 18.6278L11.9315 18.1516L11.6427 18.5957L11.8941 18.7593ZM11.8319 18.855L11.5804 18.6914L11.5699 18.7077L11.5615 18.7251L11.8319 18.855ZM15.4732 21.4709L15.3489 21.1979L15.3419 21.2011L15.335 21.2046L15.4732 21.4709ZM15.5307 21.4441L15.4029 21.1727L15.4029 21.1727L15.5307 21.4441ZM15.8467 21.3433L16.0869 21.1636L16.0869 21.1636L15.8467 21.3433ZM15.6454 21.5704L15.8241 21.8114L15.8241 21.8114L15.6454 21.5704ZM15.5666 21.6304L15.3773 21.3977L15.3773 21.3977L15.5666 21.6304ZM11.3339 16.7176L11.6019 16.853L11.6065 16.8429L11.3339 16.7176ZM11.3354 16.7144L11.608 16.8397L11.608 16.8397L11.3354 16.7144ZM12.7656 14.2931L12.5306 14.1066L12.5248 14.1139L12.5194 14.1216L12.7656 14.2931ZM15.9271 11.1663L16.0804 11.4242L16.0804 11.4242L15.9271 11.1663ZM16.189 10.9434L15.9096 10.8344L15.9096 10.8344L16.189 10.9434ZM10.836 15.3139H10.536V16.232L11.0781 15.4911L10.836 15.3139ZM17.2783 9.38026L17.2783 9.68026L17.2783 9.68026L17.2783 9.38026ZM18.5854 9.49381L18.5323 9.78906L18.6516 9.81054L18.7523 9.74309L18.5854 9.49381ZM23.2849 8.19991L23.4168 7.93043L23.4167 7.93042L23.2849 8.19991ZM23.5339 11.2943L23.3971 11.0274L23.3971 11.0274L23.5339 11.2943ZM23.569 11.0353L23.2771 10.9662L23.2771 10.9662L23.569 11.0353ZM23.2849 8.71033L23.1088 8.95321L23.1088 8.95321L23.2849 8.71033ZM19.1132 9.59822L18.9566 9.34232L18.9566 9.34232L19.1132 9.59822ZM19.0523 9.63547L18.8959 9.37943L18.2844 9.75283L18.9796 9.92652L19.0523 9.63547ZM23.5339 16.271V16.571H23.8339V16.271H23.5339ZM15.3798 16.271V15.971H15.0798V16.271H15.3798ZM19.3013 14.3568V14.6568H19.6013V14.3568H19.3013ZM15.3176 14.3568H15.0176V14.6568H15.3176V14.3568ZM18.8768 17.1642C18.8768 17.1611 18.8764 17.1799 18.8621 17.2244C18.8488 17.2656 18.8271 17.3182 18.7953 17.3788C18.7317 17.5002 18.634 17.6419 18.503 17.7762C18.2418 18.0439 17.8639 18.2679 17.3717 18.2679V18.8679C18.0621 18.8679 18.5867 18.5496 18.9325 18.1952C19.1049 18.0184 19.2367 17.8291 19.3267 17.6574C19.411 17.4967 19.4768 17.317 19.4768 17.1642H18.8768ZM23.4405 16.8642H19.1768V17.4642H23.4405V16.8642ZM17.3094 21.739C19.7055 21.739 21.3144 20.8438 22.3234 19.8236C22.8253 19.3161 23.1764 18.7802 23.4031 18.313C23.6251 17.8555 23.7405 17.4369 23.7405 17.1642H23.1405C23.1405 17.3062 23.0679 17.6293 22.8633 18.0511C22.6633 18.4632 22.3493 18.9442 21.8968 19.4017C20.9969 20.3115 19.5402 21.139 17.3094 21.139V21.739ZM11.6245 18.8908C12.5372 20.7618 14.9837 21.739 17.3094 21.739V21.139C15.0913 21.139 12.9317 20.2021 12.1638 18.6278L11.6245 18.8908ZM12.0834 19.0185L12.1456 18.9228L11.6427 18.5957L11.5804 18.6914L12.0834 19.0185ZM15.335 21.2046C14.7544 21.5061 14.1271 21.7471 13.5473 21.8776C12.96 22.0097 12.4568 22.0203 12.1032 21.9005C11.9314 21.8424 11.8015 21.7559 11.7087 21.6428C11.6163 21.5303 11.5466 21.3745 11.5217 21.1545C11.4704 20.702 11.6125 20.0047 12.1023 18.9849L11.5615 18.7251C11.0554 19.7789 10.8551 20.6008 10.9255 21.222C10.9613 21.5389 11.0684 21.8085 11.245 22.0236C11.4212 22.2382 11.6527 22.3815 11.9108 22.4688C12.4169 22.6402 13.0477 22.6049 13.679 22.4629C14.3179 22.3192 14.9938 22.0578 15.6114 21.7372L15.335 21.2046ZM15.4029 21.1727C15.3814 21.1828 15.3638 21.1911 15.3489 21.1979L15.5975 21.7439C15.6165 21.7353 15.6378 21.7252 15.6584 21.7156L15.4029 21.1727ZM16.0869 21.1636C16.0176 21.071 15.9229 21.0456 15.8742 21.0384C15.8243 21.031 15.7813 21.0359 15.7563 21.0398C15.7046 21.048 15.6547 21.0649 15.6191 21.0781C15.5442 21.106 15.4597 21.146 15.4029 21.1727L15.6584 21.7156C15.7215 21.6859 15.7817 21.6578 15.8283 21.6405C15.8534 21.6311 15.8583 21.6312 15.8497 21.6325C15.8462 21.6331 15.8217 21.6371 15.7866 21.6319C15.7528 21.6269 15.6691 21.6068 15.6065 21.523L16.0869 21.1636ZM15.8241 21.8114C15.8725 21.7755 15.9507 21.7182 16.0099 21.6605C16.0377 21.6334 16.083 21.5859 16.1145 21.5229C16.1472 21.4576 16.194 21.3067 16.0869 21.1636L15.6065 21.523C15.5684 21.4722 15.5518 21.4121 15.5533 21.3559C15.5547 21.306 15.5699 21.2705 15.5779 21.2545C15.592 21.2263 15.6048 21.2175 15.591 21.231C15.567 21.2543 15.5258 21.2856 15.4668 21.3294L15.8241 21.8114ZM15.7559 21.8631C15.7714 21.8505 15.793 21.8345 15.8241 21.8114L15.4668 21.3294C15.4392 21.3498 15.4056 21.3747 15.3773 21.3977L15.7559 21.8631ZM11.0662 16.5822C10.084 18.5252 9.67983 19.9752 9.70077 21.0285C9.71133 21.5597 9.83029 22.0013 10.0488 22.3526C10.2686 22.706 10.5782 22.9503 10.9384 23.1015C11.6464 23.3985 12.5419 23.3351 13.3896 23.0899C14.245 22.8424 15.1008 22.3959 15.7559 21.8631L15.3773 21.3977C14.7867 21.878 14.0035 22.2876 13.2228 22.5135C12.4342 22.7417 11.6966 22.7689 11.1706 22.5482C10.9139 22.4405 10.7063 22.2737 10.5583 22.0358C10.409 21.7957 10.3096 21.4656 10.3007 21.0166C10.2826 20.1094 10.6352 18.7647 11.6017 16.8529L11.0662 16.5822ZM11.0629 16.589L11.0614 16.5923L11.6065 16.8429L11.608 16.8397L11.0629 16.589ZM12.5194 14.1216C11.5765 15.4748 11.3085 16.0548 11.0629 16.5891L11.608 16.8397C11.8404 16.3341 12.0912 15.7856 13.0117 14.4646L12.5194 14.1216ZM15.7738 10.9084C15.3418 11.1652 14.4242 11.7213 12.5306 14.1066L13.0005 14.4796C14.8572 12.1408 15.7218 11.6374 16.0804 11.4242L15.7738 10.9084ZM15.9096 10.8344C15.9124 10.827 15.9167 10.8199 15.9207 10.8149C15.9239 10.8109 15.9238 10.8122 15.915 10.8192C15.9057 10.8266 15.8909 10.837 15.8661 10.8526C15.8413 10.8683 15.8121 10.8857 15.7738 10.9084L16.0804 11.4242C16.1484 11.3837 16.2256 11.3386 16.2875 11.2896C16.3579 11.2338 16.4266 11.16 16.4685 11.0525L15.9096 10.8344ZM11.0781 15.4911C12.2688 13.8637 13.612 12.7142 14.6388 12.0126C15.1529 11.6613 15.5822 11.4259 15.8679 11.2995C16.0155 11.2342 16.107 11.2059 16.1465 11.199C16.1547 11.1975 16.1528 11.1985 16.1436 11.1985C16.1379 11.1985 16.1045 11.1986 16.0613 11.1806C16.011 11.1598 15.9385 11.1092 15.9066 11.0124C15.8784 10.9269 15.9002 10.8584 15.9096 10.8344L16.4685 11.0525C16.4856 11.0086 16.509 10.9234 16.4764 10.8246C16.4402 10.7145 16.3573 10.6538 16.2909 10.6263C16.2316 10.6017 16.1763 10.5985 16.1433 10.5985C16.1068 10.5985 16.0721 10.6028 16.0422 10.6081C15.9292 10.6281 15.7839 10.6806 15.6251 10.7508C15.2981 10.8956 14.8365 11.1507 14.3003 11.5172C13.2262 12.2511 11.8307 13.4464 10.5939 15.1368L11.0781 15.4911ZM17.2783 9.08026C13.1662 9.08027 10.536 12.0158 10.536 15.3139H11.136C11.136 12.3594 13.4853 9.68027 17.2783 9.68026L17.2783 9.08026ZM18.6386 9.19855C18.2075 9.12097 17.7537 9.08026 17.2783 9.08026L17.2783 9.68026C17.7194 9.68026 18.1376 9.71802 18.5323 9.78906L18.6386 9.19855ZM23.4167 7.93042C22.5571 7.50986 21.0039 7.51358 18.4185 9.24452L18.7523 9.74309C21.271 8.05679 22.5811 8.18958 23.1531 8.46939L23.4167 7.93042ZM23.6707 11.5613C23.7279 11.532 23.7636 11.4911 23.775 11.4779C23.7921 11.4582 23.8062 11.4381 23.8172 11.4214C23.8395 11.3875 23.8617 11.3477 23.8827 11.3062C23.9254 11.2219 23.9735 11.1111 24.0213 10.9826C24.1167 10.7259 24.2166 10.3823 24.2668 10.0151C24.3633 9.31058 24.291 8.35811 23.4168 7.93043L23.1531 8.46939C23.6482 8.71163 23.7626 9.27448 23.6724 9.93373C23.6293 10.2485 23.5424 10.5489 23.4589 10.7736C23.4171 10.8859 23.3778 10.9752 23.3475 11.0349C23.3321 11.0654 23.3214 11.0835 23.3161 11.0915C23.3133 11.0957 23.315 11.0926 23.321 11.0856C23.3215 11.0851 23.3476 11.0527 23.3971 11.0274L23.6707 11.5613ZM23.2771 10.9662C23.2579 11.0472 23.2384 11.1286 23.2289 11.1867C23.2256 11.2068 23.2159 11.264 23.2235 11.3231C23.2258 11.3405 23.2384 11.4516 23.3408 11.5314C23.479 11.639 23.6242 11.5852 23.6707 11.5613L23.3971 11.0274C23.4361 11.0073 23.5756 10.9537 23.7095 11.058C23.7627 11.0994 23.7885 11.1485 23.8005 11.178C23.8126 11.2079 23.8169 11.233 23.8186 11.2461C23.8236 11.2851 23.8169 11.3089 23.821 11.2839C23.8262 11.2519 23.8392 11.1962 23.8609 11.1045L23.2771 10.9662ZM23.1088 8.95321C23.3453 9.12469 23.4445 9.44196 23.4428 9.86011C23.4411 10.2692 23.3427 10.6894 23.2771 10.9662L23.8609 11.1045C23.925 10.834 24.0408 10.35 24.0428 9.86256C24.0447 9.38418 23.937 8.81257 23.461 8.46745L23.1088 8.95321ZM19.2698 9.85411C19.6979 9.59214 20.4035 9.16151 21.1493 8.90391C21.9095 8.64138 22.6116 8.59273 23.1088 8.95321L23.461 8.46745C22.713 7.92514 21.755 8.05993 20.9535 8.33679C20.1376 8.61859 19.3799 9.0833 18.9566 9.34232L19.2698 9.85411ZM19.2086 9.89151C19.2283 9.8795 19.2487 9.86699 19.2698 9.85411L18.9566 9.34232C18.9355 9.35523 18.9153 9.36758 18.8959 9.37943L19.2086 9.89151ZM23.8339 15.4734C23.8339 12.6769 22.151 10.1005 19.125 9.34442L18.9796 9.92652C21.71 10.6088 23.2339 12.9219 23.2339 15.4734H23.8339ZM23.8339 16.271V15.4734H23.2339V16.271H23.8339ZM15.3798 16.571H23.5339V15.971H15.3798V16.571ZM17.3717 18.2679C16.8398 18.2679 16.4305 18.1115 16.1515 17.8128C15.8698 17.5112 15.6798 17.0208 15.6798 16.271H15.0798C15.0798 17.1162 15.2944 17.7742 15.713 18.2223C16.1343 18.6733 16.7209 18.8679 17.3717 18.8679V18.2679ZM17.3717 12.6152C17.9454 12.6152 18.3412 12.8217 18.5982 13.1237C18.861 13.4325 19.0013 13.8687 19.0013 14.3568H19.6013C19.6013 13.7604 19.4303 13.1757 19.0551 12.7348C18.6741 12.2871 18.1051 12.0152 17.3717 12.0152V12.6152ZM15.6176 14.3568C15.6176 13.8474 15.7826 13.4152 16.0715 13.1125C16.3582 12.8121 16.7897 12.6152 17.3717 12.6152V12.0152C16.6466 12.0152 16.051 12.2649 15.6374 12.6982C15.2261 13.1292 15.0176 13.7178 15.0176 14.3568H15.6176ZM19.3013 14.0568H15.3176V14.6568H19.3013V14.0568Z" fill="#4E84D3" mask="url(#path-6-outside-1_3_36)"/>
</g>
<mask id="path-8-outside-2_3_36" maskUnits="userSpaceOnUse" x="9" y="7" width="16" height="17" fill="black">
<rect fill="white" x="9" y="7" width="16" height="17"/>
<path fill-rule="evenodd" clip-rule="evenodd" d="M17.3717 18.5679C18.5543 18.5679 19.1768 17.4832 19.1768 17.1642H23.4405C23.4405 17.9936 21.9363 21.439 17.3094 21.439C15.0375 21.439 12.7344 20.482 11.8941 18.7593L11.8319 18.855C9.84007 23.0022 13.0768 22.7151 15.4732 21.4709C15.4901 21.4632 15.5096 21.454 15.5307 21.4441C15.6505 21.3878 15.8202 21.3079 15.8467 21.3433C15.8842 21.3934 15.753 21.4907 15.6454 21.5704C15.6161 21.5921 15.5885 21.6126 15.5666 21.6304C13.0754 23.6566 7.43645 24.4269 11.3339 16.7176L11.3354 16.7144C11.5744 16.1944 11.8338 15.6302 12.7656 14.2931C14.6407 11.9311 15.5318 11.4013 15.9271 11.1663C16.0764 11.0776 16.1549 11.0309 16.189 10.9434C16.3135 10.6244 13.2635 11.9962 10.836 15.3139C10.836 12.1876 13.3258 9.38027 17.2783 9.38026C17.7365 9.38026 18.1726 9.4195 18.5854 9.49381C21.1375 7.78519 22.5691 7.84972 23.2849 8.19991C24.6543 8.86983 23.6584 11.2305 23.5339 11.2943C23.504 11.3096 23.5281 11.208 23.569 11.0353C23.6987 10.4881 23.9974 9.22693 23.2849 8.71033C22.0397 7.80753 19.9647 9.07722 19.1132 9.59822C19.0921 9.61111 19.0718 9.62354 19.0523 9.63547C21.9305 10.3547 23.5339 12.7994 23.5339 15.4734V16.271H15.3798C15.3798 17.866 16.189 18.5679 17.3717 18.5679ZM19.3013 14.3568C19.3013 13.2722 18.6788 12.3152 17.3717 12.3152C16.0645 12.3152 15.3176 13.2084 15.3176 14.3568H19.3013Z"/>
</mask>
<path fill-rule="evenodd" clip-rule="evenodd" d="M17.3717 18.5679C18.5543 18.5679 19.1768 17.4832 19.1768 17.1642H23.4405C23.4405 17.9936 21.9363 21.439 17.3094 21.439C15.0375 21.439 12.7344 20.482 11.8941 18.7593L11.8319 18.855C9.84007 23.0022 13.0768 22.7151 15.4732 21.4709C15.4901 21.4632 15.5096 21.454 15.5307 21.4441C15.6505 21.3878 15.8202 21.3079 15.8467 21.3433C15.8842 21.3934 15.753 21.4907 15.6454 21.5704C15.6161 21.5921 15.5885 21.6126 15.5666 21.6304C13.0754 23.6566 7.43645 24.4269 11.3339 16.7176L11.3354 16.7144C11.5744 16.1944 11.8338 15.6302 12.7656 14.2931C14.6407 11.9311 15.5318 11.4013 15.9271 11.1663C16.0764 11.0776 16.1549 11.0309 16.189 10.9434C16.3135 10.6244 13.2635 11.9962 10.836 15.3139C10.836 12.1876 13.3258 9.38027 17.2783 9.38026C17.7365 9.38026 18.1726 9.4195 18.5854 9.49381C21.1375 7.78519 22.5691 7.84972 23.2849 8.19991C24.6543 8.86983 23.6584 11.2305 23.5339 11.2943C23.504 11.3096 23.5281 11.208 23.569 11.0353C23.6987 10.4881 23.9974 9.22693 23.2849 8.71033C22.0397 7.80753 19.9647 9.07722 19.1132 9.59822C19.0921 9.61111 19.0718 9.62354 19.0523 9.63547C21.9305 10.3547 23.5339 12.7994 23.5339 15.4734V16.271H15.3798C15.3798 17.866 16.189 18.5679 17.3717 18.5679ZM19.3013 14.3568C19.3013 13.2722 18.6788 12.3152 17.3717 12.3152C16.0645 12.3152 15.3176 13.2084 15.3176 14.3568H19.3013Z" fill="url(#paint6_linear_3_36)" fill-opacity="0.7" style="mix-blend-mode:overlay"/>
<path d="M19.1768 17.1642V16.8642H18.8768V17.1642H19.1768ZM23.4405 17.1642H23.7405V16.8642H23.4405V17.1642ZM11.8941 18.7593L12.1638 18.6278L11.9315 18.1516L11.6427 18.5957L11.8941 18.7593ZM11.8319 18.855L11.5804 18.6914L11.5699 18.7077L11.5615 18.7251L11.8319 18.855ZM15.4732 21.4709L15.3489 21.1979L15.3419 21.2011L15.335 21.2046L15.4732 21.4709ZM15.5307 21.4441L15.4029 21.1727L15.4029 21.1727L15.5307 21.4441ZM15.8467 21.3433L16.0869 21.1636L16.0869 21.1636L15.8467 21.3433ZM15.6454 21.5704L15.8241 21.8114L15.8241 21.8114L15.6454 21.5704ZM15.5666 21.6304L15.3773 21.3977L15.3773 21.3977L15.5666 21.6304ZM11.3339 16.7176L11.6019 16.853L11.6065 16.8429L11.3339 16.7176ZM11.3354 16.7144L11.608 16.8397L11.608 16.8397L11.3354 16.7144ZM12.7656 14.2931L12.5306 14.1066L12.5248 14.1139L12.5194 14.1216L12.7656 14.2931ZM15.9271 11.1663L16.0804 11.4242L16.0804 11.4242L15.9271 11.1663ZM16.189 10.9434L15.9096 10.8344L15.9096 10.8344L16.189 10.9434ZM10.836 15.3139H10.536V16.232L11.0781 15.4911L10.836 15.3139ZM17.2783 9.38026L17.2783 9.68026L17.2783 9.68026L17.2783 9.38026ZM18.5854 9.49381L18.5323 9.78906L18.6516 9.81054L18.7523 9.74309L18.5854 9.49381ZM23.2849 8.19991L23.4168 7.93043L23.4167 7.93042L23.2849 8.19991ZM23.5339 11.2943L23.3971 11.0274L23.3971 11.0274L23.5339 11.2943ZM23.569 11.0353L23.2771 10.9662L23.2771 10.9662L23.569 11.0353ZM23.2849 8.71033L23.1088 8.95321L23.1088 8.95321L23.2849 8.71033ZM19.1132 9.59822L18.9566 9.34232L18.9566 9.34232L19.1132 9.59822ZM19.0523 9.63547L18.8959 9.37943L18.2844 9.75283L18.9796 9.92652L19.0523 9.63547ZM23.5339 16.271V16.571H23.8339V16.271H23.5339ZM15.3798 16.271V15.971H15.0798V16.271H15.3798ZM19.3013 14.3568V14.6568H19.6013V14.3568H19.3013ZM15.3176 14.3568H15.0176V14.6568H15.3176V14.3568ZM18.8768 17.1642C18.8768 17.1611 18.8764 17.1799 18.8621 17.2244C18.8488 17.2656 18.8271 17.3182 18.7953 17.3788C18.7317 17.5002 18.634 17.6419 18.503 17.7762C18.2418 18.0439 17.8639 18.2679 17.3717 18.2679V18.8679C18.0621 18.8679 18.5867 18.5496 18.9325 18.1952C19.1049 18.0184 19.2367 17.8291 19.3267 17.6574C19.411 17.4967 19.4768 17.317 19.4768 17.1642H18.8768ZM23.4405 16.8642H19.1768V17.4642H23.4405V16.8642ZM17.3094 21.739C19.7055 21.739 21.3144 20.8438 22.3234 19.8236C22.8253 19.3161 23.1764 18.7802 23.4031 18.313C23.6251 17.8555 23.7405 17.4369 23.7405 17.1642H23.1405C23.1405 17.3062 23.0679 17.6293 22.8633 18.0511C22.6633 18.4632 22.3493 18.9442 21.8968 19.4017C20.9969 20.3115 19.5402 21.139 17.3094 21.139V21.739ZM11.6245 18.8908C12.5372 20.7618 14.9837 21.739 17.3094 21.739V21.139C15.0913 21.139 12.9317 20.2021 12.1638 18.6278L11.6245 18.8908ZM12.0834 19.0185L12.1456 18.9228L11.6427 18.5957L11.5804 18.6914L12.0834 19.0185ZM15.335 21.2046C14.7544 21.5061 14.1271 21.7471 13.5473 21.8776C12.96 22.0097 12.4568 22.0203 12.1032 21.9005C11.9314 21.8424 11.8015 21.7559 11.7087 21.6428C11.6163 21.5303 11.5466 21.3745 11.5217 21.1545C11.4704 20.702 11.6125 20.0047 12.1023 18.9849L11.5615 18.7251C11.0554 19.7789 10.8551 20.6008 10.9255 21.222C10.9613 21.5389 11.0684 21.8085 11.245 22.0236C11.4212 22.2382 11.6527 22.3815 11.9108 22.4688C12.4169 22.6402 13.0477 22.6049 13.679 22.4629C14.3179 22.3192 14.9938 22.0578 15.6114 21.7372L15.335 21.2046ZM15.4029 21.1727C15.3814 21.1828 15.3638 21.1911 15.3489 21.1979L15.5975 21.7439C15.6165 21.7353 15.6378 21.7252 15.6584 21.7156L15.4029 21.1727ZM16.0869 21.1636C16.0176 21.071 15.9229 21.0456 15.8742 21.0384C15.8243 21.031 15.7813 21.0359 15.7563 21.0398C15.7046 21.048 15.6547 21.0649 15.6191 21.0781C15.5442 21.106 15.4597 21.146 15.4029 21.1727L15.6584 21.7156C15.7215 21.6859 15.7817 21.6578 15.8283 21.6405C15.8534 21.6311 15.8583 21.6312 15.8497 21.6325C15.8462 21.6331 15.8217 21.6371 15.7866 21.6319C15.7528 21.6269 15.6691 21.6068 15.6065 21.523L16.0869 21.1636ZM15.8241 21.8114C15.8725 21.7755 15.9507 21.7182 16.0099 21.6605C16.0377 21.6334 16.083 21.5859 16.1145 21.5229C16.1472 21.4576 16.194 21.3067 16.0869 21.1636L15.6065 21.523C15.5684 21.4722 15.5518 21.4121 15.5533 21.3559C15.5547 21.306 15.5699 21.2705 15.5779 21.2545C15.592 21.2263 15.6048 21.2175 15.591 21.231C15.567 21.2543 15.5258 21.2856 15.4668 21.3294L15.8241 21.8114ZM15.7559 21.8631C15.7714 21.8505 15.793 21.8345 15.8241 21.8114L15.4668 21.3294C15.4392 21.3498 15.4056 21.3747 15.3773 21.3977L15.7559 21.8631ZM11.0662 16.5822C10.084 18.5252 9.67983 19.9752 9.70077 21.0285C9.71133 21.5597 9.83029 22.0013 10.0488 22.3526C10.2686 22.706 10.5782 22.9503 10.9384 23.1015C11.6464 23.3985 12.5419 23.3351 13.3896 23.0899C14.245 22.8424 15.1008 22.3959 15.7559 21.8631L15.3773 21.3977C14.7867 21.878 14.0035 22.2876 13.2228 22.5135C12.4342 22.7417 11.6966 22.7689 11.1706 22.5482C10.9139 22.4405 10.7063 22.2737 10.5583 22.0358C10.409 21.7957 10.3096 21.4656 10.3007 21.0166C10.2826 20.1094 10.6352 18.7647 11.6017 16.8529L11.0662 16.5822ZM11.0629 16.589L11.0614 16.5923L11.6065 16.8429L11.608 16.8397L11.0629 16.589ZM12.5194 14.1216C11.5765 15.4748 11.3085 16.0548 11.0629 16.5891L11.608 16.8397C11.8404 16.3341 12.0912 15.7856 13.0117 14.4646L12.5194 14.1216ZM15.7738 10.9084C15.3418 11.1652 14.4242 11.7213 12.5306 14.1066L13.0005 14.4796C14.8572 12.1408 15.7218 11.6374 16.0804 11.4242L15.7738 10.9084ZM15.9096 10.8344C15.9124 10.827 15.9167 10.8199 15.9207 10.8149C15.9239 10.8109 15.9238 10.8122 15.915 10.8192C15.9057 10.8266 15.8909 10.837 15.8661 10.8526C15.8413 10.8683 15.8121 10.8857 15.7738 10.9084L16.0804 11.4242C16.1484 11.3837 16.2256 11.3386 16.2875 11.2896C16.3579 11.2338 16.4266 11.16 16.4685 11.0525L15.9096 10.8344ZM11.0781 15.4911C12.2688 13.8637 13.612 12.7142 14.6388 12.0126C15.1529 11.6613 15.5822 11.4259 15.8679 11.2995C16.0155 11.2342 16.107 11.2059 16.1465 11.199C16.1547 11.1975 16.1528 11.1985 16.1436 11.1985C16.1379 11.1985 16.1045 11.1986 16.0613 11.1806C16.011 11.1598 15.9385 11.1092 15.9066 11.0124C15.8784 10.9269 15.9002 10.8584 15.9096 10.8344L16.4685 11.0525C16.4856 11.0086 16.509 10.9234 16.4764 10.8246C16.4402 10.7145 16.3573 10.6538 16.2909 10.6263C16.2316 10.6017 16.1763 10.5985 16.1433 10.5985C16.1068 10.5985 16.0721 10.6028 16.0422 10.6081C15.9292 10.6281 15.7839 10.6806 15.6251 10.7508C15.2981 10.8956 14.8365 11.1507 14.3003 11.5172C13.2262 12.2511 11.8307 13.4464 10.5939 15.1368L11.0781 15.4911ZM17.2783 9.08026C13.1662 9.08027 10.536 12.0158 10.536 15.3139H11.136C11.136 12.3594 13.4853 9.68027 17.2783 9.68026L17.2783 9.08026ZM18.6386 9.19855C18.2075 9.12097 17.7537 9.08026 17.2783 9.08026L17.2783 9.68026C17.7194 9.68026 18.1376 9.71802 18.5323 9.78906L18.6386 9.19855ZM23.4167 7.93042C22.5571 7.50986 21.0039 7.51358 18.4185 9.24452L18.7523 9.74309C21.271 8.05679 22.5811 8.18958 23.1531 8.46939L23.4167 7.93042ZM23.6707 11.5613C23.7279 11.532 23.7636 11.4911 23.775 11.4779C23.7921 11.4582 23.8062 11.4381 23.8172 11.4214C23.8395 11.3875 23.8617 11.3477 23.8827 11.3062C23.9254 11.2219 23.9735 11.1111 24.0213 10.9826C24.1167 10.7259 24.2166 10.3823 24.2668 10.0151C24.3633 9.31058 24.291 8.35811 23.4168 7.93043L23.1531 8.46939C23.6482 8.71163 23.7626 9.27448 23.6724 9.93373C23.6293 10.2485 23.5424 10.5489 23.4589 10.7736C23.4171 10.8859 23.3778 10.9752 23.3475 11.0349C23.3321 11.0654 23.3214 11.0835 23.3161 11.0915C23.3133 11.0957 23.315 11.0926 23.321 11.0856C23.3215 11.0851 23.3476 11.0527 23.3971 11.0274L23.6707 11.5613ZM23.2771 10.9662C23.2579 11.0472 23.2384 11.1286 23.2289 11.1867C23.2256 11.2068 23.2159 11.264 23.2235 11.3231C23.2258 11.3405 23.2384 11.4516 23.3408 11.5314C23.479 11.639 23.6242 11.5852 23.6707 11.5613L23.3971 11.0274C23.4361 11.0073 23.5756 10.9537 23.7095 11.058C23.7627 11.0994 23.7885 11.1485 23.8005 11.178C23.8126 11.2079 23.8169 11.233 23.8186 11.2461C23.8236 11.2851 23.8169 11.3089 23.821 11.2839C23.8262 11.2519 23.8392 11.1962 23.8609 11.1045L23.2771 10.9662ZM23.1088 8.95321C23.3453 9.12469 23.4445 9.44196 23.4428 9.86011C23.4411 10.2692 23.3427 10.6894 23.2771 10.9662L23.8609 11.1045C23.925 10.834 24.0408 10.35 24.0428 9.86256C24.0447 9.38418 23.937 8.81257 23.461 8.46745L23.1088 8.95321ZM19.2698 9.85411C19.6979 9.59214 20.4035 9.16151 21.1493 8.90391C21.9095 8.64138 22.6116 8.59273 23.1088 8.95321L23.461 8.46745C22.713 7.92514 21.755 8.05993 20.9535 8.33679C20.1376 8.61859 19.3799 9.0833 18.9566 9.34232L19.2698 9.85411ZM19.2086 9.89151C19.2283 9.8795 19.2487 9.86699 19.2698 9.85411L18.9566 9.34232C18.9355 9.35523 18.9153 9.36758 18.8959 9.37943L19.2086 9.89151ZM23.8339 15.4734C23.8339 12.6769 22.151 10.1005 19.125 9.34442L18.9796 9.92652C21.71 10.6088 23.2339 12.9219 23.2339 15.4734H23.8339ZM23.8339 16.271V15.4734H23.2339V16.271H23.8339ZM15.3798 16.571H23.5339V15.971H15.3798V16.571ZM17.3717 18.2679C16.8398 18.2679 16.4305 18.1115 16.1515 17.8128C15.8698 17.5112 15.6798 17.0208 15.6798 16.271H15.0798C15.0798 17.1162 15.2944 17.7742 15.713 18.2223C16.1343 18.6733 16.7209 18.8679 17.3717 18.8679V18.2679ZM17.3717 12.6152C17.9454 12.6152 18.3412 12.8217 18.5982 13.1237C18.861 13.4325 19.0013 13.8687 19.0013 14.3568H19.6013C19.6013 13.7604 19.4303 13.1757 19.0551 12.7348C18.6741 12.2871 18.1051 12.0152 17.3717 12.0152V12.6152ZM15.6176 14.3568C15.6176 13.8474 15.7826 13.4152 16.0715 13.1125C16.3582 12.8121 16.7897 12.6152 17.3717 12.6152V12.0152C16.6466 12.0152 16.051 12.2649 15.6374 12.6982C15.2261 13.1292 15.0176 13.7178 15.0176 14.3568H15.6176ZM19.3013 14.0568H15.3176V14.6568H19.3013V14.0568Z" fill="#4E84D3" mask="url(#path-8-outside-2_3_36)"/>
<defs>
<filter id="filter0_d_3_36" x="4.3" y="12.7" width="25.0927" height="7.29999" filterUnits="userSpaceOnUse" color-interpolation-filters="sRGB">
<feFlood flood-opacity="0" result="BackgroundImageFix"/>
<feColorMatrix in="SourceAlpha" type="matrix" values="0 0 0 0 0 0 0 0 0 0 0 0 0 0 0 0 0 0 127 0" result="hardAlpha"/>
<feOffset dy="1"/>
<feGaussianBlur stdDeviation="0.5"/>
<feComposite in2="hardAlpha" operator="out"/>
<feColorMatrix type="matrix" values="0 0 0 0 0.305882 0 0 0 0 0.517647 0 0 0 0 0.827451 0 0 0 0.5 0"/>
<feBlend mode="normal" in2="BackgroundImageFix" result="effect1_dropShadow_3_36"/>
<feBlend mode="normal" in="SourceGraphic" in2="effect1_dropShadow_3_36" result="shape"/>
</filter>
<filter id="filter1_d_3_36" x="7.7" y="6.69949" width="18.5994" height="19.6005" filterUnits="userSpaceOnUse" color-interpolation-filters="sRGB">
<feFlood flood-opacity="0" result="BackgroundImageFix"/>
<feColorMatrix in="SourceAlpha" type="matrix" values="0 0 0 0 0 0 0 0 0 0 0 0 0 0 0 0 0 0 127 0" result="hardAlpha"/>
<feOffset dy="1"/>
<feGaussianBlur stdDeviation="1"/>
<feComposite in2="hardAlpha" operator="out"/>
<feColorMatrix type="matrix" values="0 0 0 0 0.219608 0 0 0 0 0.423529 0 0 0 0 0.701961 0 0 0 0.58 0"/>
<feBlend mode="normal" in2="BackgroundImageFix" result="effect1_dropShadow_3_36"/>
<feBlend mode="normal" in="SourceGraphic" in2="effect1_dropShadow_3_36" result="shape"/>
</filter>
<linearGradient id="paint0_linear_3_36" x1="17" y1="1" x2="17" y2="25" gradientUnits="userSpaceOnUse">
<stop stop-color="#FEFEFE"/>
<stop offset="0.33" stop-color="#FBFCFD"/>
<stop offset="1" stop-color="#C7D7E9"/>
</linearGradient>
<linearGradient id="paint1_linear_3_36" x1="1" y1="13" x2="33" y2="13" gradientUnits="userSpaceOnUse">
<stop stop-color="#4E84D3"/>
<stop offset="0.5" stop-color="#6FAEF3"/>
<stop offset="1" stop-color="#4E84D3"/>
</linearGradient>
<linearGradient id="paint2_linear_3_36" x1="17" y1="4" x2="17" y2="25" gradientUnits="userSpaceOnUse">
<stop stop-color="#FEFEFE"/>
<stop offset="0.33" stop-color="#FBFCFD"/>
<stop offset="1" stop-color="#C7D7E9"/>
</linearGradient>
<linearGradient id="paint3_linear_3_36" x1="1" y1="3" x2="33" y2="3" gradientUnits="userSpaceOnUse">
<stop stop-color="#4E84D3"/>
<stop offset="0.5" stop-color="#6FAEF3"/>
<stop offset="1" stop-color="#4E84D3"/>
</linearGradient>
<linearGradient id="paint4_linear_3_36" x1="1" y1="6" x2="33" y2="6" gradientUnits="userSpaceOnUse">
<stop stop-color="#386CB3"/>
<stop offset="0.5" stop-color="#548FCF"/>
<stop offset="1" stop-color="#386CB3"/>
</linearGradient>
<linearGradient id="paint5_linear_3_36" x1="21.3242" y1="20.2267" x2="12.2796" y2="11.2213" gradientUnits="userSpaceOnUse">
<stop stop-color="#6FAEF3"/>
<stop offset="0.132201" stop-color="#578FDB"/>
<stop offset="0.5" stop-color="#4E84D3"/>
<stop offset="1" stop-color="#6FAEF3"/>
</linearGradient>
<linearGradient id="paint6_linear_3_36" x1="21.5" y1="20" x2="13" y2="11" gradientUnits="userSpaceOnUse">
<stop offset="0.024309" stop-color="white"/>
<stop offset="0.340245" stop-color="white" stop-opacity="0.0471926"/>
<stop offset="0.879895" stop-color="white" stop-opacity="0"/>
<stop offset="1" stop-color="white"/>
</linearGradient>
</defs>
</svg>
