<svg width="44" height="40" viewBox="0 0 44 40" fill="none" xmlns="http://www.w3.org/2000/svg">
<path d="M2 0.5C1.17157 0.5 0.5 1.17157 0.5 2V24C0.5 24.8284 1.17157 25.5 2 25.5H32C32.8284 25.5 33.5 24.8284 33.5 24V2C33.5 1.17157 32.8284 0.5 32 0.5H2Z" fill="url(#paint0_linear_3_36)" stroke="url(#paint1_linear_3_36)"/>
<path d="M2 3.5C1.17157 3.5 0.5 4.17157 0.5 5V24C0.5 24.8284 1.17157 25.5 2 25.5H32C32.8284 25.5 33.5 24.8284 33.5 24V5C33.5 4.17157 32.8284 3.5 32 3.5H2Z" fill="url(#paint2_linear_3_36)" stroke="#4E84D3"/>
<rect x="1" y="1" width="32" height="4" fill="url(#paint3_linear_3_36)"/>
<rect x="1" y="5" width="32" height="2" fill="url(#paint4_linear_3_36)"/>
<g filter="url(#filter0_d_3_36)">
<mask id="path-5-outside-1_3_36" maskUnits="userSpaceOnUse" x="2" y="12" width="30" height="8" fill="black">
<rect fill="white" x="2" y="12" width="30" height="8"/>
<path d="M11.851 12.64C11.899 12.64 11.935 12.66 11.959 12.7C11.983 12.732 11.987 12.772 11.971 12.82L10.135 18.844C10.119 18.9 10.091 18.94 10.051 18.964C10.019 18.988 9.97102 19 9.90702 19H9.33102C9.19502 19 9.11102 18.948 9.07902 18.844L7.65102 14.356C7.61902 14.284 7.59102 14.248 7.56702 14.248C7.54302 14.248 7.52302 14.284 7.50702 14.356L6.15102 18.844C6.13502 18.9 6.10702 18.94 6.06702 18.964C6.03502 18.988 5.98702 19 5.92302 19H5.31102C5.18302 19 5.09902 18.948 5.05902 18.844L3.16302 12.82C3.15502 12.772 3.16302 12.732 3.18702 12.7C3.21102 12.66 3.25102 12.64 3.30702 12.64H4.01502C4.06302 12.64 4.10302 12.652 4.13502 12.676C4.16702 12.692 4.19102 12.724 4.20702 12.772L5.63502 17.44C5.65902 17.52 5.68702 17.56 5.71902 17.56C5.75102 17.552 5.78302 17.508 5.81502 17.428L7.23102 12.76C7.24702 12.72 7.26702 12.692 7.29102 12.676C7.32302 12.652 7.35902 12.64 7.39902 12.64H7.96302C8.01102 12.64 8.05102 12.652 8.08302 12.676C8.11502 12.692 8.13502 12.724 8.14302 12.772L9.61902 17.44C9.64302 17.52 9.67102 17.56 9.70302 17.56C9.73502 17.552 9.76302 17.508 9.78702 17.428L11.167 12.772C11.191 12.724 11.219 12.692 11.251 12.676C11.283 12.652 11.323 12.64 11.371 12.64H11.851ZM21.2846 12.64C21.3326 12.64 21.3686 12.66 21.3926 12.7C21.4166 12.732 21.4206 12.772 21.4046 12.82L19.5686 18.844C19.5526 18.9 19.5246 18.94 19.4846 18.964C19.4526 18.988 19.4046 19 19.3406 19H18.7646C18.6286 19 18.5446 18.948 18.5126 18.844L17.0846 14.356C17.0526 14.284 17.0246 14.248 17.0006 14.248C16.9766 14.248 16.9566 14.284 16.9406 14.356L15.5846 18.844C15.5686 18.9 15.5406 18.94 15.5006 18.964C15.4686 18.988 15.4206 19 15.3566 19H14.7446C14.6166 19 14.5326 18.948 14.4926 18.844L12.5966 12.82C12.5886 12.772 12.5966 12.732 12.6206 12.7C12.6446 12.66 12.6846 12.64 12.7406 12.64H13.4486C13.4966 12.64 13.5366 12.652 13.5686 12.676C13.6006 12.692 13.6246 12.724 13.6406 12.772L15.0686 17.44C15.0926 17.52 15.1206 17.56 15.1526 17.56C15.1846 17.552 15.2166 17.508 15.2486 17.428L16.6646 12.76C16.6806 12.72 16.7006 12.692 16.7246 12.676C16.7566 12.652 16.7926 12.64 16.8326 12.64H17.3966C17.4446 12.64 17.4846 12.652 17.5166 12.676C17.5486 12.692 17.5686 12.724 17.5766 12.772L19.0526 17.44C19.0766 17.52 19.1046 17.56 19.1366 17.56C19.1686 17.552 19.1966 17.508 19.2206 17.428L20.6006 12.772C20.6246 12.724 20.6526 12.692 20.6846 12.676C20.7166 12.652 20.7566 12.64 20.8046 12.64H21.2846ZM30.7182 12.64C30.7662 12.64 30.8022 12.66 30.8262 12.7C30.8502 12.732 30.8542 12.772 30.8382 12.82L29.0022 18.844C28.9862 18.9 28.9582 18.94 28.9182 18.964C28.8862 18.988 28.8382 19 28.7742 19H28.1982C28.0622 19 27.9782 18.948 27.9462 18.844L26.5182 14.356C26.4862 14.284 26.4582 14.248 26.4342 14.248C26.4102 14.248 26.3902 14.284 26.3742 14.356L25.0182 18.844C25.0022 18.9 24.9742 18.94 24.9342 18.964C24.9022 18.988 24.8542 19 24.7902 19H24.1782C24.0502 19 23.9662 18.948 23.9262 18.844L22.0302 12.82C22.0222 12.772 22.0302 12.732 22.0542 12.7C22.0782 12.66 22.1182 12.64 22.1742 12.64H22.8822C22.9302 12.64 22.9702 12.652 23.0022 12.676C23.0342 12.692 23.0582 12.724 23.0742 12.772L24.5022 17.44C24.5262 17.52 24.5542 17.56 24.5862 17.56C24.6182 17.552 24.6502 17.508 24.6822 17.428L26.0982 12.76C26.1142 12.72 26.1342 12.692 26.1582 12.676C26.1902 12.652 26.2262 12.64 26.2662 12.64H26.8302C26.8782 12.64 26.9182 12.652 26.9502 12.676C26.9822 12.692 27.0022 12.724 27.0102 12.772L28.4862 17.44C28.5102 17.52 28.5382 17.56 28.5702 17.56C28.6022 17.552 28.6302 17.508 28.6542 17.428L30.0342 12.772C30.0582 12.724 30.0862 12.692 30.1182 12.676C30.1502 12.652 30.1902 12.64 30.2382 12.64H30.7182Z"/>
</mask>
<path d="M11.851 12.64C11.899 12.64 11.935 12.66 11.959 12.7C11.983 12.732 11.987 12.772 11.971 12.82L10.135 18.844C10.119 18.9 10.091 18.94 10.051 18.964C10.019 18.988 9.97102 19 9.90702 19H9.33102C9.19502 19 9.11102 18.948 9.07902 18.844L7.65102 14.356C7.61902 14.284 7.59102 14.248 7.56702 14.248C7.54302 14.248 7.52302 14.284 7.50702 14.356L6.15102 18.844C6.13502 18.9 6.10702 18.94 6.06702 18.964C6.03502 18.988 5.98702 19 5.92302 19H5.31102C5.18302 19 5.09902 18.948 5.05902 18.844L3.16302 12.82C3.15502 12.772 3.16302 12.732 3.18702 12.7C3.21102 12.66 3.25102 12.64 3.30702 12.64H4.01502C4.06302 12.64 4.10302 12.652 4.13502 12.676C4.16702 12.692 4.19102 12.724 4.20702 12.772L5.63502 17.44C5.65902 17.52 5.68702 17.56 5.71902 17.56C5.75102 17.552 5.78302 17.508 5.81502 17.428L7.23102 12.76C7.24702 12.72 7.26702 12.692 7.29102 12.676C7.32302 12.652 7.35902 12.64 7.39902 12.64H7.96302C8.01102 12.64 8.05102 12.652 8.08302 12.676C8.11502 12.692 8.13502 12.724 8.14302 12.772L9.61902 17.44C9.64302 17.52 9.67102 17.56 9.70302 17.56C9.73502 17.552 9.76302 17.508 9.78702 17.428L11.167 12.772C11.191 12.724 11.219 12.692 11.251 12.676C11.283 12.652 11.323 12.64 11.371 12.64H11.851ZM21.2846 12.64C21.3326 12.64 21.3686 12.66 21.3926 12.7C21.4166 12.732 21.4206 12.772 21.4046 12.82L19.5686 18.844C19.5526 18.9 19.5246 18.94 19.4846 18.964C19.4526 18.988 19.4046 19 19.3406 19H18.7646C18.6286 19 18.5446 18.948 18.5126 18.844L17.0846 14.356C17.0526 14.284 17.0246 14.248 17.0006 14.248C16.9766 14.248 16.9566 14.284 16.9406 14.356L15.5846 18.844C15.5686 18.9 15.5406 18.94 15.5006 18.964C15.4686 18.988 15.4206 19 15.3566 19H14.7446C14.6166 19 14.5326 18.948 14.4926 18.844L12.5966 12.82C12.5886 12.772 12.5966 12.732 12.6206 12.7C12.6446 12.66 12.6846 12.64 12.7406 12.64H13.4486C13.4966 12.64 13.5366 12.652 13.5686 12.676C13.6006 12.692 13.6246 12.724 13.6406 12.772L15.0686 17.44C15.0926 17.52 15.1206 17.56 15.1526 17.56C15.1846 17.552 15.2166 17.508 15.2486 17.428L16.6646 12.76C16.6806 12.72 16.7006 12.692 16.7246 12.676C16.7566 12.652 16.7926 12.64 16.8326 12.64H17.3966C17.4446 12.64 17.4846 12.652 17.5166 12.676C17.5486 12.692 17.5686 12.724 17.5766 12.772L19.0526 17.44C19.0766 17.52 19.1046 17.56 19.1366 17.56C19.1686 17.552 19.1966 17.508 19.2206 17.428L20.6006 12.772C20.6246 12.724 20.6526 12.692 20.6846 12.676C20.7166 12.652 20.7566 12.64 20.8046 12.64H21.2846ZM30.7182 12.64C30.7662 12.64 30.8022 12.66 30.8262 12.7C30.8502 12.732 30.8542 12.772 30.8382 12.82L29.0022 18.844C28.9862 18.9 28.9582 18.94 28.9182 18.964C28.8862 18.988 28.8382 19 28.7742 19H28.1982C28.0622 19 27.9782 18.948 27.9462 18.844L26.5182 14.356C26.4862 14.284 26.4582 14.248 26.4342 14.248C26.4102 14.248 26.3902 14.284 26.3742 14.356L25.0182 18.844C25.0022 18.9 24.9742 18.94 24.9342 18.964C24.9022 18.988 24.8542 19 24.7902 19H24.1782C24.0502 19 23.9662 18.948 23.9262 18.844L22.0302 12.82C22.0222 12.772 22.0302 12.732 22.0542 12.7C22.0782 12.66 22.1182 12.64 22.1742 12.64H22.8822C22.9302 12.64 22.9702 12.652 23.0022 12.676C23.0342 12.692 23.0582 12.724 23.0742 12.772L24.5022 17.44C24.5262 17.52 24.5542 17.56 24.5862 17.56C24.6182 17.552 24.6502 17.508 24.6822 17.428L26.0982 12.76C26.1142 12.72 26.1342 12.692 26.1582 12.676C26.1902 12.652 26.2262 12.64 26.2662 12.64H26.8302C26.8782 12.64 26.9182 12.652 26.9502 12.676C26.9822 12.692 27.0022 12.724 27.0102 12.772L28.4862 17.44C28.5102 17.52 28.5382 17.56 28.5702 17.56C28.6022 17.552 28.6302 17.508 28.6542 17.428L30.0342 12.772C30.0582 12.724 30.0862 12.692 30.1182 12.676C30.1502 12.652 30.1902 12.64 30.2382 12.64H30.7182Z" fill="#7CAAE6" fill-opacity="0.5" shape-rendering="crispEdges"/>
<path d="M11.959 12.7L11.5303 12.9572L11.5435 12.9794L11.559 13L11.959 12.7ZM11.971 12.82L11.4965 12.6618L11.4927 12.6742L11.971 12.82ZM10.135 18.844L9.65666 18.6982L9.65425 18.7066L10.135 18.844ZM10.051 18.964L9.79377 18.5353L9.77165 18.5485L9.75102 18.564L10.051 18.964ZM9.07902 18.844L9.55693 18.697L9.55548 18.6924L9.07902 18.844ZM7.65102 14.356L8.12748 14.2044L8.11912 14.1781L8.10792 14.1529L7.65102 14.356ZM7.50702 14.356L7.98565 14.5006L7.99105 14.4827L7.99511 14.4645L7.50702 14.356ZM6.15102 18.844L5.67233 18.6994L5.67025 18.7066L6.15102 18.844ZM6.06702 18.964L5.80977 18.5353L5.78765 18.5485L5.76701 18.564L6.06702 18.964ZM5.05902 18.844L4.58208 18.9941L4.58675 19.009L4.59234 19.0235L5.05902 18.844ZM3.16302 12.82L2.66982 12.9022L2.67557 12.9367L2.68608 12.9701L3.16302 12.82ZM3.18702 12.7L3.58702 13L3.60249 12.9794L3.61576 12.9572L3.18702 12.7ZM4.13502 12.676L3.83501 13.076L3.87108 13.1031L3.91141 13.1232L4.13502 12.676ZM4.20702 12.772L4.68529 12.6257L4.68136 12.6139L4.20702 12.772ZM5.63502 17.44L6.11394 17.2963L6.11314 17.2937L5.63502 17.44ZM5.71902 17.56V18.06H5.78057L5.84028 18.0451L5.71902 17.56ZM5.81502 17.428L6.27925 17.6137L6.28724 17.5937L6.29349 17.5731L5.81502 17.428ZM7.23102 12.76L6.76678 12.5743L6.75879 12.5943L6.75254 12.6149L7.23102 12.76ZM7.29102 12.676L7.56836 13.092L7.57991 13.0843L7.59102 13.076L7.29102 12.676ZM8.08302 12.676L7.78301 13.076L7.81908 13.1031L7.85941 13.1232L8.08302 12.676ZM8.14302 12.772L7.64982 12.8542L7.65563 12.8891L7.66628 12.9227L8.14302 12.772ZM9.61902 17.44L10.098 17.2963L10.0958 17.2893L9.61902 17.44ZM9.70302 17.56V18.06H9.76457L9.82428 18.0451L9.70302 17.56ZM9.78702 17.428L10.2659 17.5717L10.2664 17.5701L9.78702 17.428ZM11.167 12.772L10.7198 12.5484L10.7001 12.5877L10.6876 12.6299L11.167 12.772ZM11.251 12.676L11.4746 13.1232L11.5149 13.1031L11.551 13.076L11.251 12.676ZM11.851 13.14C11.8042 13.14 11.7389 13.1297 11.6712 13.0921C11.6028 13.0541 11.5573 13.0023 11.5303 12.9572L12.3878 12.4427C12.2702 12.2469 12.0684 12.14 11.851 12.14V13.14ZM11.559 13C11.516 12.9427 11.4895 12.874 11.4825 12.8038C11.4759 12.7379 11.488 12.688 11.4967 12.6619L12.4454 12.9781C12.4978 12.8207 12.5075 12.5979 12.359 12.4L11.559 13ZM11.4927 12.6742L9.65674 18.6982L10.6133 18.9898L12.4493 12.9658L11.4927 12.6742ZM9.65425 18.7066C9.65865 18.6913 9.66909 18.6626 9.6924 18.6293C9.71674 18.5945 9.75076 18.5611 9.79377 18.5353L10.3083 19.3927C10.4823 19.2883 10.574 19.1276 10.6158 18.9814L9.65425 18.7066ZM9.75102 18.564C9.79935 18.5278 9.84395 18.5124 9.86975 18.5059C9.89502 18.4996 9.90939 18.5 9.90702 18.5V19.5C10.0191 19.5 10.1943 19.4815 10.351 19.364L9.75102 18.564ZM9.90702 18.5H9.33102V19.5H9.90702V18.5ZM9.33102 18.5C9.32231 18.5 9.3677 18.4978 9.42919 18.5359C9.50075 18.5802 9.54121 18.646 9.55691 18.697L8.60113 18.991C8.64882 19.146 8.74729 19.2898 8.90284 19.3861C9.04834 19.4762 9.20372 19.5 9.33102 19.5V18.5ZM9.55548 18.6924L8.12748 14.2044L7.17455 14.5076L8.60255 18.9956L9.55548 18.6924ZM8.10792 14.1529C8.08552 14.1025 8.05119 14.033 8.00069 13.968C7.97091 13.9297 7.82751 13.748 7.56702 13.748V14.748C7.44349 14.748 7.35204 14.7011 7.30116 14.6658C7.2519 14.6317 7.223 14.597 7.21134 14.582C7.18884 14.553 7.18451 14.5375 7.19411 14.5591L8.10792 14.1529ZM7.56702 13.748C7.27041 13.748 7.13 13.9727 7.09694 14.0322C7.052 14.1131 7.03051 14.1954 7.01892 14.2475L7.99511 14.4645C7.99952 14.4446 7.99603 14.4729 7.97109 14.5178C7.95801 14.5414 7.9265 14.5925 7.86638 14.6417C7.79975 14.6962 7.69686 14.748 7.56702 14.748V13.748ZM7.02839 14.2114L5.67239 18.6994L6.62965 18.9886L7.98565 14.5006L7.02839 14.2114ZM5.67025 18.7066C5.67465 18.6913 5.68509 18.6626 5.7084 18.6293C5.73274 18.5945 5.76677 18.5611 5.80977 18.5353L6.32426 19.3927C6.49835 19.2883 6.58999 19.1276 6.63178 18.9814L5.67025 18.7066ZM5.76701 18.564C5.81535 18.5278 5.85995 18.5124 5.88575 18.5059C5.91102 18.4996 5.92539 18.5 5.92302 18.5V19.5C6.03509 19.5 6.21032 19.4815 6.36702 19.364L5.76701 18.564ZM5.92302 18.5H5.31102V19.5H5.92302V18.5ZM5.31102 18.5C5.31299 18.5 5.35795 18.5004 5.41519 18.5359C5.47776 18.5746 5.51176 18.6283 5.52569 18.6645L4.59234 19.0235C4.64628 19.1637 4.74227 19.2954 4.88884 19.3861C5.03008 19.4736 5.18104 19.5 5.31102 19.5V18.5ZM5.53595 18.6939L3.63995 12.6699L2.68608 12.9701L4.58208 18.9941L5.53595 18.6939ZM3.65621 12.7378C3.6603 12.7623 3.66324 12.8024 3.65331 12.8521C3.64296 12.9038 3.62072 12.9551 3.58702 13L2.78702 12.4C2.66375 12.5644 2.64458 12.7508 2.66982 12.9022L3.65621 12.7378ZM3.61576 12.9572C3.58105 13.0151 3.52745 13.0678 3.45862 13.1022C3.39391 13.1346 3.33752 13.14 3.30702 13.14V12.14C3.11665 12.14 2.89201 12.2198 2.75827 12.4428L3.61576 12.9572ZM3.30702 13.14H4.01502V12.14H3.30702V13.14ZM4.01502 13.14C3.97708 13.14 3.90582 13.1291 3.83501 13.076L4.43502 12.276C4.30021 12.1749 4.14895 12.14 4.01502 12.14V13.14ZM3.91141 13.1232C3.78297 13.059 3.74105 12.9552 3.73267 12.9301L4.68136 12.6139C4.64098 12.4928 4.55106 12.325 4.35862 12.2288L3.91141 13.1232ZM3.72889 12.9183L5.15689 17.5863L6.11314 17.2937L4.68514 12.6257L3.72889 12.9183ZM5.1561 17.5837C5.17417 17.6439 5.20563 17.7328 5.2644 17.8167C5.3207 17.8972 5.46727 18.06 5.71902 18.06V17.06C5.93876 17.06 6.05533 17.2028 6.08363 17.2433C6.1144 17.2872 6.11986 17.3161 6.11393 17.2963L5.1561 17.5837ZM5.84028 18.0451C6.02372 17.9992 6.12789 17.8749 6.17138 17.8151C6.22163 17.746 6.25569 17.6726 6.27925 17.6137L5.35078 17.2423C5.34234 17.2634 5.3444 17.252 5.36265 17.2269C5.37254 17.2133 5.39334 17.1871 5.42772 17.1592C5.46271 17.1308 5.51931 17.0945 5.59775 17.0749L5.84028 18.0451ZM6.29349 17.5731L7.70949 12.9051L6.75254 12.6149L5.33654 17.2829L6.29349 17.5731ZM7.69525 12.9457C7.69117 12.9559 7.66064 13.0305 7.56836 13.092L7.01367 12.26C6.87339 12.3535 6.80286 12.4841 6.76678 12.5743L7.69525 12.9457ZM7.59102 13.076C7.56636 13.0945 7.53582 13.1114 7.50013 13.1233C7.46445 13.1352 7.42983 13.14 7.39902 13.14V12.14C7.25083 12.14 7.10956 12.1871 6.99101 12.276L7.59102 13.076ZM7.39902 13.14H7.96302V12.14H7.39902V13.14ZM7.96302 13.14C7.92508 13.14 7.85382 13.1291 7.78301 13.076L8.38302 12.276C8.24821 12.1749 8.09695 12.14 7.96302 12.14V13.14ZM7.85941 13.1232C7.78854 13.0878 7.73399 13.0346 7.69802 12.977C7.66465 12.9236 7.65364 12.8771 7.64982 12.8542L8.63621 12.6898C8.61217 12.5455 8.52959 12.3403 8.30662 12.2288L7.85941 13.1232ZM7.66628 12.9227L9.14228 17.5907L10.0958 17.2893L8.61975 12.6213L7.66628 12.9227ZM9.1401 17.5837C9.15817 17.6439 9.18963 17.7328 9.2484 17.8167C9.3047 17.8972 9.45127 18.06 9.70302 18.06V17.06C9.92276 17.06 10.0393 17.2028 10.0676 17.2433C10.0984 17.2872 10.1039 17.3161 10.0979 17.2963L9.1401 17.5837ZM9.82428 18.0451C10.0198 17.9962 10.1254 17.8592 10.1698 17.7894C10.2187 17.7126 10.2476 17.6327 10.2659 17.5717L9.3081 17.2843C9.3024 17.3033 9.30529 17.2854 9.32618 17.2526C9.34259 17.2268 9.41823 17.1158 9.58175 17.0749L9.82428 18.0451ZM10.2664 17.5701L11.6464 12.9141L10.6876 12.6299L9.30763 17.2859L10.2664 17.5701ZM11.6142 12.9956C11.6128 12.9984 11.577 13.072 11.4746 13.1232L11.0274 12.2288C10.861 12.312 10.7692 12.4496 10.7198 12.5484L11.6142 12.9956ZM11.551 13.076C11.4802 13.1291 11.4089 13.14 11.371 13.14V12.14C11.2371 12.14 11.0858 12.1749 10.951 12.276L11.551 13.076ZM11.371 13.14H11.851V12.14H11.371V13.14ZM21.3926 12.7L20.9639 12.9572L20.9771 12.9794L20.9926 13L21.3926 12.7ZM21.4046 12.82L20.9301 12.6618L20.9263 12.6742L21.4046 12.82ZM19.5686 18.844L19.0903 18.6982L19.0878 18.7066L19.5686 18.844ZM19.4846 18.964L19.2274 18.5353L19.2052 18.5485L19.1846 18.564L19.4846 18.964ZM18.5126 18.844L18.9905 18.697L18.9891 18.6924L18.5126 18.844ZM17.0846 14.356L17.5611 14.2044L17.5527 14.1781L17.5415 14.1529L17.0846 14.356ZM16.9406 14.356L17.4192 14.5006L17.4246 14.4827L17.4287 14.4645L16.9406 14.356ZM15.5846 18.844L15.1059 18.6994L15.1038 18.7066L15.5846 18.844ZM15.5006 18.964L15.2434 18.5353L15.2212 18.5485L15.2006 18.564L15.5006 18.964ZM14.4926 18.844L14.0157 18.9941L14.0203 19.009L14.0259 19.0235L14.4926 18.844ZM12.5966 12.82L12.1034 12.9022L12.1092 12.9367L12.1197 12.9701L12.5966 12.82ZM12.6206 12.7L13.0206 13L13.0361 12.9794L13.0494 12.9572L12.6206 12.7ZM13.5686 12.676L13.2686 13.076L13.3047 13.1031L13.345 13.1232L13.5686 12.676ZM13.6406 12.772L14.1189 12.6257L14.115 12.6139L13.6406 12.772ZM15.0686 17.44L15.5475 17.2963L15.5467 17.2937L15.0686 17.44ZM15.1526 17.56V18.06H15.2142L15.2739 18.0451L15.1526 17.56ZM15.2486 17.428L15.7128 17.6137L15.7208 17.5937L15.7271 17.5731L15.2486 17.428ZM16.6646 12.76L16.2004 12.5743L16.1924 12.5943L16.1861 12.6149L16.6646 12.76ZM16.7246 12.676L17.002 13.092L17.0135 13.0843L17.0246 13.076L16.7246 12.676ZM17.5166 12.676L17.2166 13.076L17.2527 13.1031L17.293 13.1232L17.5166 12.676ZM17.5766 12.772L17.0834 12.8542L17.0892 12.8891L17.0999 12.9227L17.5766 12.772ZM19.0526 17.44L19.5316 17.2963L19.5293 17.2893L19.0526 17.44ZM19.1366 17.56V18.06H19.1982L19.2579 18.0451L19.1366 17.56ZM19.2206 17.428L19.6995 17.5717L19.7 17.5701L19.2206 17.428ZM20.6006 12.772L20.1534 12.5484L20.1337 12.5877L20.1212 12.6299L20.6006 12.772ZM20.6846 12.676L20.9082 13.1232L20.9485 13.1031L20.9846 13.076L20.6846 12.676ZM21.2846 13.14C21.2378 13.14 21.1725 13.1297 21.1048 13.0921C21.0364 13.0541 20.9909 13.0023 20.9639 12.9572L21.8214 12.4427C21.7038 12.2469 21.502 12.14 21.2846 12.14V13.14ZM20.9926 13C20.9496 12.9427 20.9231 12.874 20.9161 12.8038C20.9095 12.7379 20.9216 12.688 20.9303 12.6619L21.879 12.9781C21.9314 12.8207 21.9411 12.5979 21.7926 12.4L20.9926 13ZM20.9263 12.6742L19.0903 18.6982L20.0469 18.9898L21.8829 12.9658L20.9263 12.6742ZM19.0878 18.7066C19.0922 18.6913 19.1027 18.6626 19.126 18.6293C19.1503 18.5945 19.1844 18.5611 19.2274 18.5353L19.7419 19.3927C19.9159 19.2883 20.0076 19.1276 20.0494 18.9814L19.0878 18.7066ZM19.1846 18.564C19.2329 18.5278 19.2775 18.5124 19.3033 18.5059C19.3286 18.4996 19.343 18.5 19.3406 18.5V19.5C19.4527 19.5 19.6279 19.4815 19.7846 19.364L19.1846 18.564ZM19.3406 18.5H18.7646V19.5H19.3406V18.5ZM18.7646 18.5C18.7559 18.5 18.8013 18.4978 18.8628 18.5359C18.9343 18.5802 18.9748 18.646 18.9905 18.697L18.0347 18.991C18.0824 19.146 18.1809 19.2898 18.3364 19.3861C18.4819 19.4762 18.6373 19.5 18.7646 19.5V18.5ZM18.9891 18.6924L17.5611 14.2044L16.6081 14.5076L18.0361 18.9956L18.9891 18.6924ZM17.5415 14.1529C17.5191 14.1025 17.4848 14.033 17.4343 13.968C17.4045 13.9297 17.2611 13.748 17.0006 13.748V14.748C16.8771 14.748 16.7856 14.7011 16.7348 14.6658C16.6855 14.6317 16.6566 14.597 16.6449 14.582C16.6224 14.553 16.6181 14.5375 16.6277 14.5591L17.5415 14.1529ZM17.0006 13.748C16.704 13.748 16.5636 13.9727 16.5305 14.0322C16.4856 14.1131 16.4641 14.1954 16.4525 14.2475L17.4287 14.4645C17.4331 14.4446 17.4296 14.4729 17.4047 14.5178C17.3916 14.5414 17.3601 14.5925 17.3 14.6417C17.2333 14.6962 17.1304 14.748 17.0006 14.748V13.748ZM16.462 14.2114L15.106 18.6994L16.0632 18.9886L17.4192 14.5006L16.462 14.2114ZM15.1038 18.7066C15.1082 18.6913 15.1187 18.6626 15.142 18.6293C15.1663 18.5945 15.2004 18.5611 15.2434 18.5353L15.7579 19.3927C15.9319 19.2883 16.0236 19.1276 16.0654 18.9814L15.1038 18.7066ZM15.2006 18.564C15.2489 18.5278 15.2935 18.5124 15.3193 18.5059C15.3446 18.4996 15.359 18.5 15.3566 18.5V19.5C15.4687 19.5 15.6439 19.4815 15.8006 19.364L15.2006 18.564ZM15.3566 18.5H14.7446V19.5H15.3566V18.5ZM14.7446 18.5C14.7466 18.5 14.7915 18.5004 14.8488 18.5359C14.9114 18.5746 14.9453 18.6283 14.9593 18.6645L14.0259 19.0235C14.0799 19.1637 14.1759 19.2954 14.3224 19.3861C14.4637 19.4736 14.6146 19.5 14.7446 19.5V18.5ZM14.9695 18.6939L13.0735 12.6699L12.1197 12.9701L14.0157 18.9941L14.9695 18.6939ZM13.0898 12.7378C13.0939 12.7623 13.0968 12.8024 13.0869 12.8521C13.0766 12.9038 13.0543 12.9551 13.0206 13L12.2206 12.4C12.0973 12.5644 12.0782 12.7508 12.1034 12.9022L13.0898 12.7378ZM13.0494 12.9572C13.0146 13.0151 12.961 13.0678 12.8922 13.1022C12.8275 13.1346 12.7711 13.14 12.7406 13.14V12.14C12.5502 12.14 12.3256 12.2198 12.1919 12.4428L13.0494 12.9572ZM12.7406 13.14H13.4486V12.14H12.7406V13.14ZM13.4486 13.14C13.4107 13.14 13.3394 13.1291 13.2686 13.076L13.8686 12.276C13.7338 12.1749 13.5825 12.14 13.4486 12.14V13.14ZM13.345 13.1232C13.2166 13.059 13.1746 12.9552 13.1663 12.9301L14.115 12.6139C14.0746 12.4928 13.9847 12.325 13.7922 12.2288L13.345 13.1232ZM13.1625 12.9183L14.5905 17.5863L15.5467 17.2937L14.1187 12.6257L13.1625 12.9183ZM14.5897 17.5837C14.6078 17.6439 14.6392 17.7328 14.698 17.8167C14.7543 17.8972 14.9009 18.06 15.1526 18.06V17.06C15.3724 17.06 15.4889 17.2028 15.5172 17.2433C15.548 17.2872 15.5535 17.3161 15.5475 17.2963L14.5897 17.5837ZM15.2739 18.0451C15.4573 17.9992 15.5615 17.8749 15.605 17.8151C15.6552 17.746 15.6893 17.6726 15.7128 17.6137L14.7844 17.2423C14.7759 17.2634 14.778 17.252 14.7962 17.2269C14.8061 17.2133 14.8269 17.1871 14.8613 17.1592C14.8963 17.1308 14.9529 17.0945 15.0313 17.0749L15.2739 18.0451ZM15.7271 17.5731L17.1431 12.9051L16.1861 12.6149L14.7701 17.2829L15.7271 17.5731ZM17.1288 12.9457C17.1248 12.9559 17.0942 13.0305 17.002 13.092L16.4473 12.26C16.307 12.3535 16.2365 12.4841 16.2004 12.5743L17.1288 12.9457ZM17.0246 13.076C17 13.0945 16.9694 13.1114 16.9337 13.1233C16.898 13.1352 16.8634 13.14 16.8326 13.14V12.14C16.6844 12.14 16.5432 12.1871 16.4246 12.276L17.0246 13.076ZM16.8326 13.14H17.3966V12.14H16.8326V13.14ZM17.3966 13.14C17.3587 13.14 17.2874 13.1291 17.2166 13.076L17.8166 12.276C17.6818 12.1749 17.5305 12.14 17.3966 12.14V13.14ZM17.293 13.1232C17.2221 13.0878 17.1676 13.0346 17.1316 12.977C17.0982 12.9236 17.0872 12.8771 17.0834 12.8542L18.0698 12.6898C18.0458 12.5455 17.9632 12.3403 17.7402 12.2288L17.293 13.1232ZM17.0999 12.9227L18.5759 17.5907L19.5293 17.2893L18.0533 12.6213L17.0999 12.9227ZM18.5737 17.5837C18.5918 17.6439 18.6232 17.7328 18.682 17.8167C18.7383 17.8972 18.8849 18.06 19.1366 18.06V17.06C19.3564 17.06 19.4729 17.2028 19.5012 17.2433C19.532 17.2872 19.5375 17.3161 19.5315 17.2963L18.5737 17.5837ZM19.2579 18.0451C19.4534 17.9962 19.559 17.8592 19.6034 17.7894C19.6523 17.7126 19.6812 17.6327 19.6995 17.5717L18.7417 17.2843C18.736 17.3033 18.7389 17.2854 18.7598 17.2526C18.7762 17.2268 18.8518 17.1158 19.0153 17.0749L19.2579 18.0451ZM19.7 17.5701L21.08 12.9141L20.1212 12.6299L18.7412 17.2859L19.7 17.5701ZM21.0478 12.9956C21.0464 12.9984 21.0106 13.072 20.9082 13.1232L20.461 12.2288C20.2946 12.312 20.2028 12.4496 20.1534 12.5484L21.0478 12.9956ZM20.9846 13.076C20.9138 13.1291 20.8425 13.14 20.8046 13.14V12.14C20.6707 12.14 20.5194 12.1749 20.3846 12.276L20.9846 13.076ZM20.8046 13.14H21.2846V12.14H20.8046V13.14ZM30.8262 12.7L30.3975 12.9572L30.4107 12.9794L30.4262 13L30.8262 12.7ZM30.8382 12.82L30.3637 12.6618L30.3599 12.6742L30.8382 12.82ZM29.0022 18.844L28.5239 18.6982L28.5214 18.7066L29.0022 18.844ZM28.9182 18.964L28.661 18.5353L28.6388 18.5485L28.6182 18.564L28.9182 18.964ZM27.9462 18.844L28.4241 18.697L28.4227 18.6924L27.9462 18.844ZM26.5182 14.356L26.9947 14.2044L26.9863 14.1781L26.9751 14.1529L26.5182 14.356ZM26.3742 14.356L26.8528 14.5006L26.8582 14.4827L26.8623 14.4645L26.3742 14.356ZM25.0182 18.844L24.5395 18.6994L24.5374 18.7066L25.0182 18.844ZM24.9342 18.964L24.677 18.5353L24.6548 18.5485L24.6342 18.564L24.9342 18.964ZM23.9262 18.844L23.4493 18.9941L23.4539 19.009L23.4595 19.0235L23.9262 18.844ZM22.0302 12.82L21.537 12.9022L21.5428 12.9367L21.5533 12.9701L22.0302 12.82ZM22.0542 12.7L22.4542 13L22.4697 12.9794L22.483 12.9572L22.0542 12.7ZM23.0022 12.676L22.7022 13.076L22.7383 13.1031L22.7786 13.1232L23.0022 12.676ZM23.0742 12.772L23.5525 12.6257L23.5485 12.6139L23.0742 12.772ZM24.5022 17.44L24.9811 17.2963L24.9803 17.2937L24.5022 17.44ZM24.5862 17.56V18.06H24.6478L24.7075 18.0451L24.5862 17.56ZM24.6822 17.428L25.1464 17.6137L25.1544 17.5937L25.1607 17.5731L24.6822 17.428ZM26.0982 12.76L25.634 12.5743L25.626 12.5943L25.6197 12.6149L26.0982 12.76ZM26.1582 12.676L26.4356 13.092L26.4471 13.0843L26.4582 13.076L26.1582 12.676ZM26.9502 12.676L26.6502 13.076L26.6863 13.1031L26.7266 13.1232L26.9502 12.676ZM27.0102 12.772L26.517 12.8542L26.5228 12.8891L26.5335 12.9227L27.0102 12.772ZM28.4862 17.44L28.9652 17.2963L28.9629 17.2893L28.4862 17.44ZM28.5702 17.56V18.06H28.6318L28.6915 18.0451L28.5702 17.56ZM28.6542 17.428L29.1331 17.5717L29.1336 17.5701L28.6542 17.428ZM30.0342 12.772L29.587 12.5484L29.5673 12.5877L29.5548 12.6299L30.0342 12.772ZM30.1182 12.676L30.3418 13.1232L30.3821 13.1031L30.4182 13.076L30.1182 12.676ZM30.7182 13.14C30.6714 13.14 30.6061 13.1297 30.5384 13.0921C30.47 13.0541 30.4245 13.0023 30.3975 12.9572L31.2549 12.4427C31.1374 12.2469 30.9356 12.14 30.7182 12.14V13.14ZM30.4262 13C30.3832 12.9427 30.3567 12.874 30.3497 12.8038C30.3431 12.7379 30.3551 12.688 30.3639 12.6619L31.3125 12.9781C31.365 12.8207 31.3747 12.5979 31.2262 12.4L30.4262 13ZM30.3599 12.6742L28.5239 18.6982L29.4805 18.9898L31.3165 12.9658L30.3599 12.6742ZM28.5214 18.7066C28.5258 18.6913 28.5363 18.6626 28.5596 18.6293C28.5839 18.5945 28.618 18.5611 28.661 18.5353L29.1755 19.3927C29.3495 19.2883 29.4412 19.1276 29.483 18.9814L28.5214 18.7066ZM28.6182 18.564C28.6665 18.5278 28.7111 18.5124 28.7369 18.5059C28.7622 18.4996 28.7766 18.5 28.7742 18.5V19.5C28.8863 19.5 29.0615 19.4815 29.2182 19.364L28.6182 18.564ZM28.7742 18.5H28.1982V19.5H28.7742V18.5ZM28.1982 18.5C28.1895 18.5 28.2349 18.4978 28.2964 18.5359C28.3679 18.5802 28.4084 18.646 28.4241 18.697L27.4683 18.991C27.516 19.146 27.6145 19.2898 27.77 19.3861C27.9155 19.4762 28.0709 19.5 28.1982 19.5V18.5ZM28.4227 18.6924L26.9947 14.2044L26.0417 14.5076L27.4697 18.9956L28.4227 18.6924ZM26.9751 14.1529C26.9527 14.1025 26.9184 14.033 26.8679 13.968C26.8381 13.9297 26.6947 13.748 26.4342 13.748V14.748C26.3107 14.748 26.2192 14.7011 26.1683 14.6658C26.1191 14.6317 26.0902 14.597 26.0785 14.582C26.056 14.553 26.0517 14.5375 26.0613 14.5591L26.9751 14.1529ZM26.4342 13.748C26.1376 13.748 25.9972 13.9727 25.9641 14.0322C25.9192 14.1131 25.8977 14.1954 25.8861 14.2475L26.8623 14.4645C26.8667 14.4446 26.8632 14.4729 26.8383 14.5178C26.8252 14.5414 26.7937 14.5925 26.7336 14.6417C26.6669 14.6962 26.564 14.748 26.4342 14.748V13.748ZM25.8956 14.2114L24.5396 18.6994L25.4968 18.9886L26.8528 14.5006L25.8956 14.2114ZM24.5374 18.7066C24.5418 18.6913 24.5523 18.6626 24.5756 18.6293C24.5999 18.5945 24.634 18.5611 24.677 18.5353L25.1915 19.3927C25.3655 19.2883 25.4572 19.1276 25.499 18.9814L24.5374 18.7066ZM24.6342 18.564C24.6825 18.5278 24.7271 18.5124 24.7529 18.5059C24.7782 18.4996 24.7926 18.5 24.7902 18.5V19.5C24.9023 19.5 25.0775 19.4815 25.2342 19.364L24.6342 18.564ZM24.7902 18.5H24.1782V19.5H24.7902V18.5ZM24.1782 18.5C24.1802 18.5 24.2251 18.5004 24.2824 18.5359C24.3449 18.5746 24.3789 18.6283 24.3929 18.6645L23.4595 19.0235C23.5135 19.1637 23.6095 19.2954 23.756 19.3861C23.8973 19.4736 24.0482 19.5 24.1782 19.5V18.5ZM24.4031 18.6939L22.5071 12.6699L21.5533 12.9701L23.4493 18.9941L24.4031 18.6939ZM22.5234 12.7378C22.5275 12.7623 22.5304 12.8024 22.5205 12.8521C22.5102 12.9038 22.4879 12.9551 22.4542 13L21.6542 12.4C21.5309 12.5644 21.5118 12.7508 21.537 12.9022L22.5234 12.7378ZM22.483 12.9572C22.4482 13.0151 22.3946 13.0678 22.3258 13.1022C22.2611 13.1346 22.2047 13.14 22.1742 13.14V12.14C21.9838 12.14 21.7592 12.2198 21.6255 12.4428L22.483 12.9572ZM22.1742 13.14H22.8822V12.14H22.1742V13.14ZM22.8822 13.14C22.8443 13.14 22.773 13.1291 22.7022 13.076L23.3022 12.276C23.1674 12.1749 23.0161 12.14 22.8822 12.14V13.14ZM22.7786 13.1232C22.6502 13.059 22.6082 12.9552 22.5999 12.9301L23.5485 12.6139C23.5082 12.4928 23.4182 12.325 23.2258 12.2288L22.7786 13.1232ZM22.5961 12.9183L24.0241 17.5863L24.9803 17.2937L23.5523 12.6257L22.5961 12.9183ZM24.0233 17.5837C24.0414 17.6439 24.0728 17.7328 24.1316 17.8167C24.1879 17.8972 24.3345 18.06 24.5862 18.06V17.06C24.8059 17.06 24.9225 17.2028 24.9508 17.2433C24.9816 17.2872 24.987 17.3161 24.9811 17.2963L24.0233 17.5837ZM24.7075 18.0451C24.8909 17.9992 24.9951 17.8749 25.0386 17.8151C25.0888 17.746 25.1229 17.6726 25.1464 17.6137L24.218 17.2423C24.2095 17.2634 24.2116 17.252 24.2298 17.2269C24.2397 17.2133 24.2605 17.1871 24.2949 17.1592C24.3299 17.1308 24.3865 17.0945 24.4649 17.0749L24.7075 18.0451ZM25.1607 17.5731L26.5767 12.9051L25.6197 12.6149L24.2037 17.2829L25.1607 17.5731ZM26.5624 12.9457C26.5584 12.9559 26.5278 13.0305 26.4356 13.092L25.8809 12.26C25.7406 12.3535 25.67 12.4841 25.634 12.5743L26.5624 12.9457ZM26.4582 13.076C26.4336 13.0945 26.403 13.1114 26.3673 13.1233C26.3316 13.1352 26.297 13.14 26.2662 13.14V12.14C26.118 12.14 25.9767 12.1871 25.8582 12.276L26.4582 13.076ZM26.2662 13.14H26.8302V12.14H26.2662V13.14ZM26.8302 13.14C26.7923 13.14 26.721 13.1291 26.6502 13.076L27.2502 12.276C27.1154 12.1749 26.9641 12.14 26.8302 12.14V13.14ZM26.7266 13.1232C26.6557 13.0878 26.6012 13.0346 26.5652 12.977C26.5318 12.9236 26.5208 12.8771 26.517 12.8542L27.5034 12.6898C27.4794 12.5455 27.3968 12.3403 27.1738 12.2288L26.7266 13.1232ZM26.5335 12.9227L28.0095 17.5907L28.9629 17.2893L27.4869 12.6213L26.5335 12.9227ZM28.0073 17.5837C28.0254 17.6439 28.0568 17.7328 28.1156 17.8167C28.1719 17.8972 28.3185 18.06 28.5702 18.06V17.06C28.7899 17.06 28.9065 17.2028 28.9348 17.2433C28.9656 17.2872 28.971 17.3161 28.9651 17.2963L28.0073 17.5837ZM28.6915 18.0451C28.887 17.9962 28.9926 17.8592 29.037 17.7894C29.0859 17.7126 29.1148 17.6327 29.1331 17.5717L28.1753 17.2843C28.1696 17.3033 28.1725 17.2854 28.1934 17.2526C28.2098 17.2268 28.2854 17.1158 28.4489 17.0749L28.6915 18.0451ZM29.1336 17.5701L30.5136 12.9141L29.5548 12.6299L28.1748 17.2859L29.1336 17.5701ZM30.4814 12.9956C30.48 12.9984 30.4442 13.072 30.3418 13.1232L29.8946 12.2288C29.7282 12.312 29.6364 12.4496 29.587 12.5484L30.4814 12.9956ZM30.4182 13.076C30.3474 13.1291 30.2761 13.14 30.2382 13.14V12.14C30.1043 12.14 29.953 12.1749 29.8182 12.276L30.4182 13.076ZM30.2382 13.14H30.7182V12.14H30.2382V13.14Z" fill="#578FDB" fill-opacity="0.6" mask="url(#path-5-outside-1_3_36)"/>
</g>
<rect x="28" y="22" width="4" height="3" fill="white"/>
<mask id="path-8-outside-2_3_36" maskUnits="userSpaceOnUse" x="23" y="18" width="16" height="17" fill="black">
<rect fill="white" x="23" y="18" width="16" height="17"/>
<path fill-rule="evenodd" clip-rule="evenodd" d="M31.3717 29.5679C32.5543 29.5679 33.1768 28.4832 33.1768 28.1642H37.4405C37.4405 28.9936 35.9363 32.439 31.3094 32.439C29.0375 32.439 26.7344 31.482 25.8941 29.7593L25.8319 29.855C23.8401 34.0022 27.0768 33.7151 29.4732 32.4709C29.4901 32.4632 29.5096 32.454 29.5307 32.4441C29.6505 32.3878 29.8202 32.3079 29.8467 32.3433C29.8842 32.3934 29.753 32.4907 29.6454 32.5704C29.6161 32.5921 29.5885 32.6126 29.5666 32.6304C27.0754 34.6566 21.4364 35.4269 25.3339 27.7176L25.3354 27.7144C25.5744 27.1944 25.8338 26.6302 26.7656 25.2931C28.6407 22.9311 29.5318 22.4013 29.9271 22.1663C30.0764 22.0776 30.1549 22.0309 30.189 21.9434C30.3135 21.6244 27.2635 22.9962 24.836 26.3139C24.836 23.1876 27.3258 20.3803 31.2783 20.3803C31.7365 20.3803 32.1726 20.4195 32.5854 20.4938C35.1375 18.7852 36.5691 18.8497 37.2849 19.1999C38.6543 19.8698 37.6584 22.2305 37.5339 22.2943C37.504 22.3096 37.5281 22.208 37.569 22.0353C37.6987 21.4881 37.9974 20.2269 37.2849 19.7103C36.0397 18.8075 33.9647 20.0772 33.1132 20.5982C33.0921 20.6111 33.0718 20.6235 33.0523 20.6355C35.9305 21.3547 37.5339 23.7994 37.5339 26.4734V27.271H29.3798C29.3798 28.866 30.189 29.5679 31.3717 29.5679ZM33.3013 25.3568C33.3013 24.2722 32.6788 23.3152 31.3717 23.3152C30.0645 23.3152 29.3176 24.2084 29.3176 25.3568H33.3013Z"/>
</mask>
<path d="M33.1768 28.1642V27.5642H32.5768V28.1642H33.1768ZM37.4405 28.1642H38.0405V27.5642H37.4405V28.1642ZM25.8941 29.7593L26.4334 29.4962L25.9689 28.5439L25.3912 29.4322L25.8941 29.7593ZM25.8319 29.855L25.3289 29.5279L25.3078 29.5603L25.2911 29.5952L25.8319 29.855ZM29.4732 32.4709L29.2246 31.9248L29.2105 31.9312L29.1967 31.9384L29.4732 32.4709ZM29.5307 32.4441L29.2752 31.9012L29.2752 31.9012L29.5307 32.4441ZM29.8467 32.3433L30.3271 31.9839L30.3271 31.9839L29.8467 32.3433ZM29.6454 32.5704L30.0027 33.0524L30.0027 33.0524L29.6454 32.5704ZM29.5666 32.6304L29.188 32.1649L29.188 32.1649L29.5666 32.6304ZM25.3339 27.7176L25.8694 27.9883L25.8744 27.9783L25.8791 27.9682L25.3339 27.7176ZM25.3354 27.7144L25.8806 27.965L25.8806 27.965L25.3354 27.7144ZM26.7656 25.2931L26.2956 24.92L26.284 24.9347L26.2733 24.9501L26.7656 25.2931ZM29.9271 22.1663L30.2337 22.6821L30.2337 22.6821L29.9271 22.1663ZM30.189 21.9434L29.6301 21.7253L29.6301 21.7253L30.189 21.9434ZM24.836 26.3139H24.236V28.15L25.3202 26.6682L24.836 26.3139ZM31.2783 20.3803L31.2783 20.9803L31.2783 20.9803L31.2783 20.3803ZM32.5854 20.4938L32.4792 21.0843L32.7178 21.1273L32.9192 20.9924L32.5854 20.4938ZM37.2849 19.1999L37.5486 18.6609L37.5486 18.6609L37.2849 19.1999ZM37.5339 22.2943L37.2602 21.7604L37.2602 21.7604L37.5339 22.2943ZM37.569 22.0353L36.9852 21.897L36.9852 21.897L37.569 22.0353ZM37.2849 19.7103L36.9327 20.1961L36.9327 20.1961L37.2849 19.7103ZM33.1132 20.5982L32.8 20.0864L32.8 20.0864L33.1132 20.5982ZM33.0523 20.6355L32.7396 20.1234L31.5165 20.8702L32.9068 21.2176L33.0523 20.6355ZM37.5339 27.271V27.871H38.1339V27.271H37.5339ZM29.3798 27.271V26.671H28.7798V27.271H29.3798ZM33.3013 25.3568V25.9568H33.9013V25.3568H33.3013ZM29.3176 25.3568H28.7176V25.9568H29.3176V25.3568ZM32.5768 28.1642C32.5768 28.0979 32.5916 28.1213 32.5296 28.2395C32.4792 28.3357 32.3985 28.4537 32.2882 28.5667C32.0694 28.791 31.7648 28.9679 31.3717 28.9679V30.1679C32.1612 30.1679 32.7592 29.8024 33.1472 29.4047C33.3404 29.2066 33.4892 28.9936 33.5924 28.7967C33.6841 28.6219 33.7768 28.39 33.7768 28.1642H32.5768ZM37.4405 27.5642H33.1768V28.7642H37.4405V27.5642ZM31.3094 33.039C33.7882 33.039 35.4732 32.1099 36.5367 31.0346C37.0633 30.5021 37.433 29.9386 37.673 29.444C37.9037 28.9686 38.0405 28.5023 38.0405 28.1642H36.8405C36.8405 28.2408 36.7894 28.5163 36.5934 28.9201C36.4068 29.3048 36.1113 29.7582 35.6835 30.1907C34.8382 31.0454 33.4575 31.839 31.3094 31.839V33.039ZM25.3549 30.0223C26.3399 32.0416 28.9298 33.039 31.3094 33.039V31.839C29.1452 31.839 27.129 30.9223 26.4334 29.4962L25.3549 30.0223ZM26.3349 30.1821L26.3971 30.0864L25.3912 29.4322L25.3289 29.5279L26.3349 30.1821ZM29.1967 31.9384C28.6347 32.2302 28.0317 32.4611 27.4815 32.5849C26.9162 32.712 26.4768 32.7103 26.1994 32.6164C26.0708 32.5728 25.9917 32.5147 25.9405 32.4524C25.8902 32.3912 25.8392 32.2922 25.8197 32.1208C25.7781 31.7526 25.8911 31.1175 26.3728 30.1147L25.2911 29.5952C24.7768 30.666 24.5475 31.5503 24.6274 32.2558C24.6687 32.6212 24.7944 32.9477 25.0132 33.214C25.231 33.4793 25.5133 33.651 25.8145 33.753C26.3969 33.9502 27.0916 33.9026 27.7449 33.7556C28.4133 33.6052 29.1136 33.3337 29.7497 33.0034L29.1967 31.9384ZM29.2752 31.9012C29.2532 31.9116 29.2374 31.919 29.2246 31.9248L29.7218 33.017C29.7428 33.0074 29.7661 32.9965 29.7861 32.987L29.2752 31.9012ZM30.3271 31.9839C30.1919 31.8031 30.008 31.7549 29.918 31.7416C29.8256 31.7279 29.7488 31.7373 29.7096 31.7435C29.6277 31.7564 29.5554 31.7817 29.5145 31.7969C29.4255 31.83 29.3288 31.876 29.2752 31.9012L29.7861 32.987C29.8523 32.9559 29.9004 32.9337 29.9329 32.9217C29.9527 32.9143 29.9352 32.9228 29.8964 32.9289C29.8786 32.9317 29.8204 32.9402 29.7428 32.9287C29.6677 32.9176 29.4949 32.8747 29.3662 32.7027L30.3271 31.9839ZM30.0027 33.0524C30.0459 33.0204 30.1426 32.9502 30.2194 32.8752C30.2541 32.8414 30.3285 32.7658 30.3828 32.6571C30.4395 32.5438 30.5319 32.2575 30.3271 31.9839L29.3662 32.7027C29.2855 32.5948 29.2501 32.4677 29.2534 32.3477C29.2564 32.2402 29.2893 32.1609 29.3095 32.1203C29.3307 32.078 29.3522 32.0501 29.3619 32.0381C29.3727 32.0248 29.3804 32.0173 29.3815 32.0163C29.3828 32.015 29.3764 32.0211 29.3566 32.0367C29.3376 32.0516 29.3163 32.0675 29.2881 32.0884L30.0027 33.0524ZM29.9452 33.0959C29.9544 33.0884 29.9698 33.0768 30.0027 33.0524L29.2881 32.0884C29.2623 32.1075 29.2226 32.1368 29.188 32.1649L29.9452 33.0959ZM24.7985 27.4469C23.8083 29.4054 23.3784 30.9081 23.4008 32.0345C23.4122 32.6067 23.5409 33.104 23.794 33.5111C24.0498 33.9222 24.4103 34.2052 24.8223 34.3781C25.6213 34.7133 26.5958 34.6318 27.4729 34.3781C28.3658 34.1197 29.2579 33.6549 29.9452 33.0959L29.188 32.1649C28.6297 32.619 27.8827 33.0103 27.1394 33.2253C26.3804 33.445 25.7217 33.4541 25.2867 33.2716C25.0817 33.1856 24.9251 33.0575 24.8131 32.8773C24.6984 32.693 24.6087 32.4186 24.6006 32.0106C24.584 31.1765 24.9108 29.8845 25.8694 27.9883L24.7985 27.4469ZM24.7903 27.4637L24.7888 27.467L25.8791 27.9682L25.8806 27.965L24.7903 27.4637ZM26.2733 24.9501C25.3191 26.3194 25.0425 26.9151 24.7903 27.4637L25.8806 27.965C26.1064 27.4738 26.3486 26.941 27.2578 25.6361L26.2733 24.9501ZM29.6205 21.6506C29.1519 21.9291 28.2076 22.5115 26.2956 24.92L27.2355 25.6661C29.0737 23.3506 29.9118 22.8734 30.2337 22.6821L29.6205 21.6506ZM29.6301 21.7253C29.6443 21.6887 29.6642 21.6552 29.6868 21.6271C29.7077 21.6011 29.7252 21.5868 29.7288 21.584C29.7314 21.5819 29.7267 21.5859 29.7061 21.5989C29.6852 21.612 29.6597 21.6272 29.6205 21.6506L30.2337 22.6821C30.2952 22.6455 30.3925 22.589 30.4737 22.5248C30.572 22.447 30.6811 22.3328 30.748 22.1615L29.6301 21.7253ZM25.3202 26.6682C26.4878 25.0724 27.805 23.9457 28.808 23.2603C29.3111 22.9165 29.7243 22.6911 29.9893 22.5738C30.0546 22.5449 30.1069 22.5244 30.1462 22.5107C30.1884 22.4961 30.2039 22.4935 30.1986 22.4944C30.196 22.4949 30.1758 22.4985 30.1438 22.4985C30.1187 22.4985 30.041 22.497 29.9465 22.4578C29.8379 22.4128 29.6876 22.3065 29.6216 22.1062C29.5631 21.9286 29.6075 21.7832 29.6301 21.7253L30.748 22.1615C30.7784 22.0837 30.8243 21.9216 30.7614 21.7307C30.691 21.5171 30.5304 21.4008 30.4057 21.3492C30.2951 21.3033 30.1955 21.2985 30.1431 21.2985C30.0838 21.2985 30.0308 21.3055 29.99 21.3127C29.8403 21.3391 29.6681 21.4037 29.5037 21.4765C29.156 21.6304 28.6784 21.8955 28.131 22.2695C27.0333 23.0196 25.6117 24.2377 24.3518 25.9596L25.3202 26.6682ZM31.2783 19.7803C27.0067 19.7803 24.236 22.8441 24.236 26.3139H25.436C25.436 23.5311 27.6448 20.9803 31.2783 20.9803L31.2783 19.7803ZM32.6917 19.9033C32.2425 19.8224 31.7709 19.7803 31.2783 19.7803L31.2783 20.9803C31.7022 20.9803 32.1026 21.0165 32.4792 21.0843L32.6917 19.9033ZM37.5486 18.6609C36.5451 18.17 34.8703 18.242 32.2516 19.9952L32.9192 20.9924C35.4046 19.3284 36.5932 19.5294 37.0212 19.7389L37.5486 18.6609ZM37.8076 22.8283C37.9181 22.7717 37.9846 22.6942 38.002 22.674C38.0306 22.641 38.0527 22.6093 38.0678 22.5864C38.0986 22.5395 38.1265 22.4888 38.1503 22.4418C38.1992 22.3453 38.2518 22.2237 38.3025 22.0872C38.4039 21.8144 38.5102 21.4491 38.5641 21.0558C38.6636 20.3286 38.6123 19.1814 37.5486 18.6609L37.0212 19.7389C37.3269 19.8884 37.4623 20.2564 37.3752 20.893C37.3356 21.1816 37.2552 21.4604 37.1777 21.6691C37.1389 21.7733 37.104 21.8519 37.0799 21.8993C37.0673 21.9242 37.0623 21.9314 37.0655 21.9265C37.0668 21.9246 37.0764 21.9098 37.094 21.8895C37.1004 21.8821 37.1575 21.813 37.2602 21.7604L37.8076 22.8283ZM36.9852 21.897C36.9672 21.9727 36.9445 22.067 36.9328 22.1382C36.9299 22.1558 36.912 22.2534 36.926 22.3616C36.9298 22.3913 36.9538 22.6102 37.1565 22.768C37.4306 22.9816 37.7182 22.8741 37.8076 22.8283L37.2602 21.7604C37.3421 21.7184 37.6239 21.6111 37.8939 21.8213C38.0013 21.905 38.0537 22.0043 38.0784 22.0651C38.1034 22.1266 38.1124 22.1789 38.1161 22.2076C38.1275 22.2957 38.1125 22.36 38.117 22.3325C38.1201 22.3135 38.1299 22.2707 38.1529 22.1737L36.9852 21.897ZM36.9327 20.1961C37.0495 20.2808 37.1444 20.4708 37.1428 20.8589C37.1413 21.2287 37.0515 21.6172 36.9852 21.897L38.1529 22.1737C38.2162 21.9062 38.3406 21.3905 38.3428 20.8638C38.3449 20.3553 38.2329 19.6565 37.6371 19.2246L36.9327 20.1961ZM33.4264 21.11C33.8569 20.8466 34.5365 20.433 35.2473 20.1875C35.9867 19.9321 36.5609 19.9265 36.9327 20.1961L37.6371 19.2246C36.7637 18.5913 35.6778 18.7692 34.8555 19.0532C34.0046 19.3471 33.221 19.8289 32.8 20.0864L33.4264 21.11ZM33.365 21.1476C33.3848 21.1355 33.4053 21.1229 33.4264 21.11L32.8 20.0864C32.7789 20.0993 32.7589 20.1116 32.7396 20.1234L33.365 21.1476ZM38.1339 26.4734C38.1339 23.5544 36.3715 20.8464 33.1977 20.0534L32.9068 21.2176C35.4896 21.8629 36.9339 24.0444 36.9339 26.4734H38.1339ZM38.1339 27.271V26.4734H36.9339V27.271H38.1339ZM29.3798 27.871H37.5339V26.671H29.3798V27.871ZM31.3717 28.9679C30.8992 28.9679 30.5787 28.8306 30.3707 28.608C30.1575 28.3798 29.9798 27.9732 29.9798 27.271H28.7798C28.7798 28.1638 29.0067 28.9057 29.4938 29.4271C29.9861 29.9542 30.6615 30.1679 31.3717 30.1679V28.9679ZM31.3717 23.9152C31.8655 23.9152 32.1748 24.089 32.3697 24.3181C32.5764 24.561 32.7013 24.9228 32.7013 25.3568H33.9013C33.9013 24.7062 33.7149 24.0472 33.2836 23.5404C32.8405 23.0198 32.185 22.7152 31.3717 22.7152V23.9152ZM29.9176 25.3568C29.9176 24.9122 30.0608 24.5582 30.2885 24.3196C30.5118 24.0856 30.8612 23.9152 31.3717 23.9152V22.7152C30.575 22.7152 29.8974 22.9913 29.4204 23.4911C28.9479 23.9862 28.7176 24.653 28.7176 25.3568H29.9176ZM33.3013 24.7568H29.3176V25.9568H33.3013V24.7568Z" fill="#244C83" mask="url(#path-8-outside-2_3_36)"/>
<g filter="url(#filter1_di_3_36)">
<mask id="path-10-outside-3_3_36" maskUnits="userSpaceOnUse" x="23" y="18" width="16" height="17" fill="black">
<rect fill="white" x="23" y="18" width="16" height="17"/>
<path fill-rule="evenodd" clip-rule="evenodd" d="M31.3717 29.5679C32.5543 29.5679 33.1768 28.4832 33.1768 28.1642H37.4405C37.4405 28.9936 35.9363 32.439 31.3094 32.439C29.0375 32.439 26.7344 31.482 25.8941 29.7593L25.8319 29.855C23.8401 34.0022 27.0768 33.7151 29.4732 32.4709C29.4901 32.4632 29.5096 32.454 29.5307 32.4441C29.6505 32.3878 29.8202 32.3079 29.8467 32.3433C29.8842 32.3934 29.753 32.4907 29.6454 32.5704C29.6161 32.5921 29.5885 32.6126 29.5666 32.6304C27.0754 34.6566 21.4364 35.4269 25.3339 27.7176L25.3354 27.7144C25.5744 27.1944 25.8338 26.6302 26.7656 25.2931C28.6407 22.9311 29.5318 22.4013 29.9271 22.1663C30.0764 22.0776 30.1549 22.0309 30.189 21.9434C30.3135 21.6244 27.2635 22.9962 24.836 26.3139C24.836 23.1876 27.3258 20.3803 31.2783 20.3803C31.7365 20.3803 32.1726 20.4195 32.5854 20.4938C35.1375 18.7852 36.5691 18.8497 37.2849 19.1999C38.6543 19.8698 37.6584 22.2305 37.5339 22.2943C37.504 22.3096 37.5281 22.208 37.569 22.0353C37.6987 21.4881 37.9974 20.2269 37.2849 19.7103C36.0397 18.8075 33.9647 20.0772 33.1132 20.5982C33.0921 20.6111 33.0718 20.6235 33.0523 20.6355C35.9305 21.3547 37.5339 23.7994 37.5339 26.4734V27.271H29.3798C29.3798 28.866 30.189 29.5679 31.3717 29.5679ZM33.3013 25.3568C33.3013 24.2722 32.6788 23.3152 31.3717 23.3152C30.0645 23.3152 29.3176 24.2084 29.3176 25.3568H33.3013Z"/>
</mask>
<path fill-rule="evenodd" clip-rule="evenodd" d="M31.3717 29.5679C32.5543 29.5679 33.1768 28.4832 33.1768 28.1642H37.4405C37.4405 28.9936 35.9363 32.439 31.3094 32.439C29.0375 32.439 26.7344 31.482 25.8941 29.7593L25.8319 29.855C23.8401 34.0022 27.0768 33.7151 29.4732 32.4709C29.4901 32.4632 29.5096 32.454 29.5307 32.4441C29.6505 32.3878 29.8202 32.3079 29.8467 32.3433C29.8842 32.3934 29.753 32.4907 29.6454 32.5704C29.6161 32.5921 29.5885 32.6126 29.5666 32.6304C27.0754 34.6566 21.4364 35.4269 25.3339 27.7176L25.3354 27.7144C25.5744 27.1944 25.8338 26.6302 26.7656 25.2931C28.6407 22.9311 29.5318 22.4013 29.9271 22.1663C30.0764 22.0776 30.1549 22.0309 30.189 21.9434C30.3135 21.6244 27.2635 22.9962 24.836 26.3139C24.836 23.1876 27.3258 20.3803 31.2783 20.3803C31.7365 20.3803 32.1726 20.4195 32.5854 20.4938C35.1375 18.7852 36.5691 18.8497 37.2849 19.1999C38.6543 19.8698 37.6584 22.2305 37.5339 22.2943C37.504 22.3096 37.5281 22.208 37.569 22.0353C37.6987 21.4881 37.9974 20.2269 37.2849 19.7103C36.0397 18.8075 33.9647 20.0772 33.1132 20.5982C33.0921 20.6111 33.0718 20.6235 33.0523 20.6355C35.9305 21.3547 37.5339 23.7994 37.5339 26.4734V27.271H29.3798C29.3798 28.866 30.189 29.5679 31.3717 29.5679ZM33.3013 25.3568C33.3013 24.2722 32.6788 23.3152 31.3717 23.3152C30.0645 23.3152 29.3176 24.2084 29.3176 25.3568H33.3013Z" fill="url(#paint5_linear_3_36)"/>
<path d="M33.1768 28.1642V28.0642H33.0768V28.1642H33.1768ZM37.4405 28.1642H37.5405V28.0642H37.4405V28.1642ZM25.8941 29.7593L25.984 29.7154L25.9066 29.5567L25.8103 29.7048L25.8941 29.7593ZM25.8319 29.855L25.7474 29.8L25.7418 29.8117L25.8319 29.855ZM29.4732 32.4709L29.4317 32.3798L29.4271 32.3821L29.4732 32.4709ZM29.5307 32.4441L29.4881 32.3536L29.4881 32.3536L29.5307 32.4441ZM29.8467 32.3433L29.9268 32.2834L29.9268 32.2834L29.8467 32.3433ZM29.6454 32.5704L29.705 32.6507L29.705 32.6507L29.6454 32.5704ZM29.5666 32.6304L29.5035 32.5528L29.5035 32.5528L29.5666 32.6304ZM25.3339 27.7176L25.4233 27.7627L25.4248 27.7594L25.3339 27.7176ZM25.3354 27.7144L25.4263 27.7561L25.4263 27.7561L25.3354 27.7144ZM26.7656 25.2931L26.6871 25.2308L26.6835 25.2359L26.7656 25.2931ZM29.9271 22.1663L29.9782 22.2523L29.9782 22.2523L29.9271 22.1663ZM30.189 21.9434L30.0959 21.9071L30.0959 21.9071L30.189 21.9434ZM24.836 26.3139H24.736V26.6199L24.9167 26.373L24.836 26.3139ZM31.2783 20.3803L31.2783 20.4803L31.2783 20.4803L31.2783 20.3803ZM32.5854 20.4938L32.5677 20.5922L32.6075 20.5994L32.6411 20.5769L32.5854 20.4938ZM37.2849 19.1999L37.3289 19.1101L37.3289 19.1101L37.2849 19.1999ZM37.5339 22.2943L37.4883 22.2054L37.4883 22.2054L37.5339 22.2943ZM37.569 22.0353L37.4717 22.0123L37.4717 22.0123L37.569 22.0353ZM37.2849 19.7103L37.2262 19.7913L37.2262 19.7913L37.2849 19.7103ZM33.1132 20.5982L33.061 20.5129L33.061 20.5129L33.1132 20.5982ZM33.0523 20.6355L33.0002 20.5501L32.7963 20.6746L33.028 20.7325L33.0523 20.6355ZM37.5339 27.271V27.371H37.6339V27.271H37.5339ZM29.3798 27.271V27.171H29.2798V27.271H29.3798ZM33.3013 25.3568V25.4568H33.4013V25.3568H33.3013ZM29.3176 25.3568H29.2176V25.4568H29.3176V25.3568ZM33.0768 28.1642C33.0768 28.2196 33.0468 28.3299 32.9725 28.4717C32.9 28.6098 32.7909 28.7674 32.6461 28.9158C32.3568 29.2124 31.93 29.4679 31.3717 29.4679V29.6679C31.996 29.6679 32.4717 29.381 32.7893 29.0555C32.9479 28.8929 33.0684 28.7195 33.1496 28.5645C33.2289 28.4133 33.2768 28.2683 33.2768 28.1642H33.0768ZM37.4405 28.0642H33.1768V28.2642H37.4405V28.0642ZM31.3094 32.539C33.6504 32.539 35.2086 31.6664 36.1812 30.683C36.6666 30.1921 37.0054 29.6745 37.2232 29.2257C37.4394 28.7801 37.5405 28.3934 37.5405 28.1642H37.3405C37.3405 28.3498 37.2537 28.7047 37.0432 29.1384C36.8344 29.5689 36.5079 30.0681 36.039 30.5423C35.1027 31.489 33.5953 32.339 31.3094 32.339V32.539ZM25.8043 29.8031C26.6687 31.5752 29.0196 32.539 31.3094 32.539V32.339C29.0554 32.339 26.8002 31.3887 25.984 29.7154L25.8043 29.8031ZM25.9157 29.9095L25.978 29.8138L25.8103 29.7048L25.7481 29.8005L25.9157 29.9095ZM29.4271 32.3821C28.8342 32.69 28.1907 32.9378 27.5912 33.0727C26.9892 33.2081 26.4435 33.2269 26.039 33.09C25.8385 33.0221 25.6748 32.9166 25.5541 32.7698C25.4336 32.623 25.3515 32.4293 25.3229 32.177C25.2653 31.6683 25.4268 30.9294 25.922 29.8983L25.7418 29.8117C25.2411 30.8542 25.0602 31.6346 25.1242 32.1995C25.1564 32.4841 25.251 32.7158 25.3996 32.8967C25.548 33.0774 25.7456 33.2018 25.9749 33.2794C26.4302 33.4336 27.0185 33.4065 27.6351 33.2678C28.2543 33.1285 28.914 32.8739 29.5193 32.5596L29.4271 32.3821ZM29.4881 32.3536C29.4669 32.3636 29.448 32.3725 29.4318 32.3799L29.5146 32.5619C29.5322 32.5539 29.5524 32.5444 29.5732 32.5346L29.4881 32.3536ZM29.9268 32.2834C29.9015 32.2496 29.8662 32.2393 29.845 32.2362C29.8234 32.233 29.8029 32.235 29.7874 32.2374C29.7559 32.2424 29.7209 32.2536 29.6888 32.2656C29.6234 32.2899 29.5469 32.326 29.4881 32.3536L29.5732 32.5346C29.6342 32.5059 29.7025 32.4739 29.7585 32.453C29.7871 32.4424 29.8071 32.4368 29.8186 32.435C29.8246 32.434 29.8226 32.4351 29.8158 32.4341C29.8095 32.4331 29.7853 32.4282 29.7666 32.4032L29.9268 32.2834ZM29.705 32.6507C29.757 32.6122 29.8228 32.5636 29.8703 32.5173C29.8934 32.4948 29.9193 32.4661 29.9356 32.4334C29.9523 32.4001 29.9687 32.3394 29.9268 32.2834L29.7666 32.4032C29.7571 32.3904 29.7529 32.3751 29.7533 32.3614C29.7534 32.3554 29.7544 32.3509 29.7552 32.3482C29.756 32.3455 29.7567 32.344 29.7567 32.344C29.7568 32.3439 29.7564 32.3447 29.7552 32.3464C29.7541 32.3481 29.7525 32.3503 29.7502 32.3531C29.7455 32.3589 29.7391 32.3659 29.7306 32.3742C29.6949 32.409 29.6414 32.4489 29.5859 32.4901L29.705 32.6507ZM29.6297 32.708C29.6495 32.6919 29.675 32.6729 29.705 32.6507L29.5859 32.4901C29.5571 32.5114 29.5275 32.5333 29.5035 32.5528L29.6297 32.708ZM25.2447 27.6725C24.2677 29.605 23.8808 31.0199 23.9007 32.0245C23.9107 32.5283 24.0232 32.9328 24.2186 33.247C24.4145 33.5619 24.6901 33.7803 25.0158 33.917C25.6631 34.1887 26.506 34.1373 27.334 33.8978C28.1645 33.6575 28.9961 33.2233 29.6297 32.708L29.5035 32.5528C28.8914 33.0506 28.084 33.4726 27.2784 33.7056C26.4701 33.9395 25.6798 33.9788 25.0932 33.7326C24.802 33.6104 24.5604 33.4178 24.3885 33.1414C24.2161 32.8643 24.1102 32.497 24.1007 32.0205C24.0817 31.0647 24.4514 29.6849 25.4232 27.7627L25.2447 27.6725ZM25.2446 27.6726L25.2431 27.6758L25.4248 27.7594L25.4263 27.7561L25.2446 27.6726ZM26.6835 25.2359C25.748 26.5784 25.4858 27.1479 25.2446 27.6726L25.4263 27.7561C25.6631 27.241 25.9196 26.682 26.8476 25.3503L26.6835 25.2359ZM29.876 22.0803C29.4685 22.3226 28.5685 22.8611 26.6873 25.2309L26.8439 25.3553C28.7128 23.001 29.5951 22.48 29.9782 22.2523L29.876 22.0803ZM30.0959 21.9071C30.0871 21.9295 30.0724 21.9496 30.0392 21.976C30.003 22.0046 29.9528 22.0347 29.876 22.0803L29.9782 22.2523C30.0506 22.2092 30.1143 22.1716 30.1633 22.1328C30.2152 22.0917 30.2568 22.0448 30.2822 21.9798L30.0959 21.9071ZM24.9167 26.373C26.1228 24.7246 27.4834 23.5598 28.5259 22.8475C29.0474 22.4911 29.4875 22.2492 29.787 22.1166C29.9383 22.0497 30.0477 22.0133 30.1117 22.002C30.1271 21.9993 30.1375 21.9985 30.1435 21.9985C30.1507 21.9985 30.1469 21.9996 30.1378 21.9959C30.1264 21.9912 30.1057 21.9776 30.0965 21.9498C30.0886 21.9257 30.0953 21.9084 30.0959 21.9071L30.2822 21.9798C30.2905 21.9585 30.2988 21.9246 30.2865 21.8872C30.2729 21.846 30.2418 21.8225 30.2144 21.8111C30.1892 21.8007 30.1635 21.7985 30.1434 21.7985C30.1221 21.7985 30.0996 21.8011 30.0769 21.8051C29.9885 21.8207 29.8611 21.8651 29.706 21.9337C29.3928 22.0724 28.942 22.3209 28.4131 22.6823C27.3548 23.4055 25.9767 24.5855 24.7553 26.2549L24.9167 26.373ZM31.2783 20.2803C27.2726 20.2803 24.736 23.1303 24.736 26.3139H24.936C24.936 23.2448 27.3789 20.4803 31.2783 20.4803L31.2783 20.2803ZM32.6032 20.3954C32.1842 20.32 31.7422 20.2803 31.2783 20.2803L31.2783 20.4803C31.7308 20.4803 32.1609 20.519 32.5677 20.5922L32.6032 20.3954ZM37.3289 19.1101C36.5651 18.7364 35.093 18.6947 32.5298 20.4107L32.6411 20.5769C35.182 18.8757 36.5731 18.963 37.241 19.2897L37.3289 19.1101ZM37.5795 22.3833C37.6012 22.3722 37.6162 22.3558 37.6237 22.3471C37.633 22.3363 37.6419 22.324 37.6502 22.3114C37.6668 22.2862 37.6851 22.2536 37.7043 22.2157C37.7428 22.1397 37.7881 22.036 37.8338 21.913C37.9253 21.6669 38.0208 21.3377 38.0687 20.988C38.1631 20.2985 38.0767 19.476 37.3289 19.1101L37.241 19.2897C37.8625 19.5938 37.9629 20.2865 37.8705 20.9609C37.825 21.2931 37.7338 21.6079 37.6463 21.8433C37.6026 21.961 37.5603 22.0575 37.5259 22.1253C37.5086 22.1595 37.4941 22.1848 37.4831 22.2014C37.4776 22.2099 37.474 22.2145 37.4724 22.2164C37.4688 22.2204 37.4744 22.2125 37.4883 22.2054L37.5795 22.3833ZM37.4717 22.0123C37.4517 22.0969 37.4344 22.1697 37.4262 22.2191C37.4227 22.2409 37.4184 22.271 37.4219 22.2974C37.423 22.3066 37.4282 22.3459 37.4637 22.3736C37.5112 22.4106 37.5615 22.3926 37.5795 22.3833L37.4883 22.2054C37.4988 22.2 37.5434 22.1821 37.5866 22.2158C37.6036 22.2291 37.6116 22.2446 37.6152 22.2533C37.6188 22.2621 37.6199 22.2691 37.6202 22.2718C37.621 22.2781 37.6198 22.2749 37.6236 22.2515C37.6303 22.2108 37.6454 22.1465 37.6663 22.0584L37.4717 22.0123ZM37.2262 19.7913C37.5426 20.0207 37.6446 20.4227 37.6428 20.8609C37.641 21.2961 37.5368 21.7376 37.4717 22.0123L37.6663 22.0584C37.7309 21.7858 37.8409 21.3231 37.8428 20.8617C37.8447 20.4034 37.7398 19.9166 37.3436 19.6294L37.2262 19.7913ZM33.1654 20.6835C33.5919 20.4225 34.3149 19.9805 35.0841 19.7149C35.858 19.4476 36.6454 19.3702 37.2262 19.7913L37.3436 19.6294C36.6792 19.1477 35.8065 19.2537 35.0188 19.5258C34.2262 19.7996 33.4859 20.2529 33.061 20.5129L33.1654 20.6835ZM33.1044 20.7208C33.124 20.7089 33.1443 20.6964 33.1654 20.6835L33.061 20.5129C33.0399 20.5258 33.0197 20.5382 33.0002 20.5501L33.1044 20.7208ZM37.6339 26.4734C37.6339 23.7585 36.004 21.2699 33.0765 20.5385L33.028 20.7325C35.857 21.4394 37.4339 23.8402 37.4339 26.4734H37.6339ZM37.6339 27.271V26.4734H37.4339V27.271H37.6339ZM29.3798 27.371H37.5339V27.171H29.3798V27.371ZM31.3717 29.4679C30.8002 29.4679 30.3318 29.2988 30.0053 28.9493C29.678 28.5989 29.4798 28.0526 29.4798 27.271H29.2798C29.2798 28.0844 29.4862 28.6866 29.8592 29.0858C30.233 29.486 30.7605 29.6679 31.3717 29.6679V29.4679ZM31.3717 23.4152C31.9986 23.4152 32.4522 23.6435 32.7505 23.9941C33.0508 24.3469 33.2013 24.8326 33.2013 25.3568H33.4013C33.4013 24.7965 33.2405 24.2613 32.9028 23.8644C32.5631 23.4653 32.0519 23.2152 31.3717 23.2152V23.4152ZM29.4176 25.3568C29.4176 24.8042 29.5971 24.3199 29.9268 23.9744C30.2558 23.6297 30.742 23.4152 31.3717 23.4152V23.2152C30.6943 23.2152 30.1534 23.4473 29.7821 23.8363C29.4116 24.2245 29.2176 24.761 29.2176 25.3568H29.4176ZM33.3013 25.2568H29.3176V25.4568H33.3013V25.2568Z" fill="#4E84D3" mask="url(#path-10-outside-3_3_36)"/>
</g>
<mask id="path-12-inside-4_3_36" fill="white">
<path fill-rule="evenodd" clip-rule="evenodd" d="M31.3717 29.5679C32.5543 29.5679 33.1768 28.4832 33.1768 28.1642H37.4405C37.4405 28.9936 35.9363 32.439 31.3094 32.439C29.0375 32.439 26.7344 31.482 25.8941 29.7593L25.8319 29.855C23.8401 34.0022 27.0768 33.7151 29.4732 32.4709C29.4901 32.4632 29.5096 32.454 29.5307 32.4441C29.6505 32.3878 29.8202 32.3079 29.8467 32.3433C29.8842 32.3934 29.753 32.4907 29.6454 32.5704C29.6161 32.5921 29.5885 32.6126 29.5666 32.6304C27.0754 34.6566 21.4364 35.4269 25.3339 27.7176L25.3354 27.7144C25.5744 27.1944 25.8338 26.6302 26.7656 25.2931C28.6407 22.9311 29.5318 22.4013 29.9271 22.1663C30.0764 22.0776 30.1549 22.0309 30.189 21.9434C30.3135 21.6244 27.2635 22.9962 24.836 26.3139C24.836 23.1876 27.3258 20.3803 31.2783 20.3803C31.7365 20.3803 32.1726 20.4195 32.5854 20.4938C35.1375 18.7852 36.5691 18.8497 37.2849 19.1999C38.6543 19.8698 37.6584 22.2305 37.5339 22.2943C37.504 22.3096 37.5281 22.208 37.569 22.0353C37.6987 21.4881 37.9974 20.2269 37.2849 19.7103C36.0397 18.8075 33.9647 20.0772 33.1132 20.5982C33.0921 20.6111 33.0718 20.6235 33.0523 20.6355C35.9305 21.3547 37.5339 23.7994 37.5339 26.4734V27.271H29.3798C29.3798 28.866 30.189 29.5679 31.3717 29.5679ZM33.3013 25.3568C33.3013 24.2722 32.6788 23.3152 31.3717 23.3152C30.0645 23.3152 29.3176 24.2084 29.3176 25.3568H33.3013Z"/>
</mask>
<path d="M33.1768 28.1642V27.8642H32.8768V28.1642H33.1768ZM37.4405 28.1642H37.7405V27.8642H37.4405V28.1642ZM25.8941 29.7593L26.1638 29.6278L25.9315 29.1516L25.6427 29.5957L25.8941 29.7593ZM25.8319 29.855L25.5804 29.6914L25.5699 29.7077L25.5615 29.7251L25.8319 29.855ZM29.4732 32.4709L29.3489 32.1979L29.3419 32.2011L29.335 32.2046L29.4732 32.4709ZM29.5307 32.4441L29.4029 32.1727L29.4029 32.1727L29.5307 32.4441ZM29.8467 32.3433L30.0869 32.1636L30.0869 32.1636L29.8467 32.3433ZM29.6454 32.5704L29.8241 32.8114L29.8241 32.8114L29.6454 32.5704ZM29.5666 32.6304L29.3773 32.3977L29.3773 32.3977L29.5666 32.6304ZM25.3339 27.7176L25.6019 27.853L25.6065 27.8429L25.3339 27.7176ZM25.3354 27.7144L25.608 27.8397L25.608 27.8397L25.3354 27.7144ZM26.7656 25.2931L26.5306 25.1066L26.5248 25.1139L26.5194 25.1216L26.7656 25.2931ZM29.9271 22.1663L30.0804 22.4242L30.0804 22.4242L29.9271 22.1663ZM30.189 21.9434L29.9096 21.8344L29.9096 21.8344L30.189 21.9434ZM24.836 26.3139H24.536V27.232L25.0781 26.4911L24.836 26.3139ZM31.2783 20.3803L31.2783 20.6803L31.2783 20.6803L31.2783 20.3803ZM32.5854 20.4938L32.5323 20.7891L32.6516 20.8105L32.7523 20.7431L32.5854 20.4938ZM37.2849 19.1999L37.4168 18.9304L37.4167 18.9304L37.2849 19.1999ZM37.5339 22.2943L37.3971 22.0274L37.3971 22.0274L37.5339 22.2943ZM37.569 22.0353L37.2771 21.9662L37.2771 21.9662L37.569 22.0353ZM37.2849 19.7103L37.1088 19.9532L37.1088 19.9532L37.2849 19.7103ZM33.1132 20.5982L32.9566 20.3423L32.9566 20.3423L33.1132 20.5982ZM33.0523 20.6355L32.8959 20.3794L32.2844 20.7528L32.9796 20.9265L33.0523 20.6355ZM37.5339 27.271V27.571H37.8339V27.271H37.5339ZM29.3798 27.271V26.971H29.0798V27.271H29.3798ZM33.3013 25.3568V25.6568H33.6013V25.3568H33.3013ZM29.3176 25.3568H29.0176V25.6568H29.3176V25.3568ZM32.8768 28.1642C32.8768 28.1611 32.8764 28.1799 32.8621 28.2244C32.8488 28.2656 32.8271 28.3182 32.7953 28.3788C32.7317 28.5002 32.634 28.6419 32.503 28.7762C32.2418 29.0439 31.8639 29.2679 31.3717 29.2679V29.8679C32.0621 29.8679 32.5867 29.5496 32.9325 29.1952C33.1049 29.0184 33.2367 28.8291 33.3267 28.6574C33.411 28.4967 33.4768 28.317 33.4768 28.1642H32.8768ZM37.4405 27.8642H33.1768V28.4642H37.4405V27.8642ZM31.3094 32.739C33.7055 32.739 35.3144 31.8438 36.3234 30.8236C36.8253 30.3161 37.1764 29.7802 37.4031 29.313C37.6251 28.8555 37.7405 28.4369 37.7405 28.1642H37.1405C37.1405 28.3062 37.0679 28.6293 36.8633 29.0511C36.6633 29.4632 36.3493 29.9442 35.8968 30.4017C34.9969 31.3115 33.5402 32.139 31.3094 32.139V32.739ZM25.6245 29.8908C26.5372 31.7618 28.9837 32.739 31.3094 32.739V32.139C29.0913 32.139 26.9317 31.2021 26.1638 29.6278L25.6245 29.8908ZM26.0834 30.0185L26.1456 29.9228L25.6427 29.5957L25.5804 29.6914L26.0834 30.0185ZM29.335 32.2046C28.7544 32.5061 28.1271 32.7471 27.5473 32.8776C26.96 33.0097 26.4568 33.0203 26.1032 32.9005C25.9314 32.8424 25.8015 32.7559 25.7087 32.6428C25.6163 32.5303 25.5466 32.3745 25.5217 32.1545C25.4704 31.702 25.6125 31.0047 26.1023 29.9849L25.5615 29.7251C25.0554 30.7789 24.8551 31.6008 24.9255 32.222C24.9613 32.5389 25.0684 32.8085 25.245 33.0236C25.4212 33.2382 25.6527 33.3815 25.9108 33.4688C26.4169 33.6402 27.0477 33.6049 27.679 33.4629C28.3179 33.3192 28.9938 33.0578 29.6114 32.7372L29.335 32.2046ZM29.4029 32.1727C29.3814 32.1828 29.3638 32.1911 29.3489 32.1979L29.5975 32.7439C29.6165 32.7353 29.6378 32.7252 29.6584 32.7156L29.4029 32.1727ZM30.0869 32.1636C30.0176 32.071 29.9229 32.0456 29.8742 32.0384C29.8243 32.031 29.7813 32.0359 29.7563 32.0398C29.7046 32.048 29.6547 32.0649 29.6191 32.0781C29.5442 32.106 29.4597 32.146 29.4029 32.1727L29.6584 32.7156C29.7215 32.6859 29.7817 32.6578 29.8283 32.6405C29.8534 32.6311 29.8583 32.6312 29.8497 32.6325C29.8462 32.6331 29.8217 32.6371 29.7866 32.6319C29.7528 32.6269 29.6691 32.6068 29.6065 32.523L30.0869 32.1636ZM29.8241 32.8114C29.8725 32.7755 29.9507 32.7182 30.0099 32.6605C30.0377 32.6334 30.083 32.5859 30.1145 32.5229C30.1472 32.4576 30.194 32.3067 30.0869 32.1636L29.6065 32.523C29.5684 32.4722 29.5518 32.4121 29.5533 32.3559C29.5547 32.306 29.5699 32.2705 29.5779 32.2545C29.592 32.2263 29.6048 32.2175 29.591 32.231C29.567 32.2543 29.5258 32.2856 29.4668 32.3294L29.8241 32.8114ZM29.7559 32.8631C29.7714 32.8505 29.793 32.8345 29.8241 32.8114L29.4668 32.3294C29.4392 32.3498 29.4056 32.3747 29.3773 32.3977L29.7559 32.8631ZM25.0662 27.5822C24.084 29.5252 23.6798 30.9752 23.7008 32.0285C23.7113 32.5597 23.8303 33.0013 24.0488 33.3526C24.2686 33.706 24.5782 33.9503 24.9384 34.1015C25.6464 34.3985 26.5419 34.3351 27.3896 34.0899C28.245 33.8424 29.1008 33.3959 29.7559 32.8631L29.3773 32.3977C28.7867 32.878 28.0035 33.2876 27.2228 33.5135C26.4342 33.7417 25.6966 33.7689 25.1706 33.5482C24.9139 33.4405 24.7063 33.2737 24.5583 33.0358C24.409 32.7957 24.3096 32.4656 24.3007 32.0166C24.2826 31.1094 24.6352 29.7647 25.6017 27.8529L25.0662 27.5822ZM25.0629 27.589L25.0614 27.5923L25.6065 27.8429L25.608 27.8397L25.0629 27.589ZM26.5194 25.1216C25.5765 26.4748 25.3085 27.0548 25.0629 27.5891L25.608 27.8397C25.8404 27.3341 26.0912 26.7856 27.0117 25.4646L26.5194 25.1216ZM29.7738 21.9084C29.3418 22.1652 28.4242 22.7213 26.5306 25.1066L27.0005 25.4796C28.8572 23.1408 29.7218 22.6374 30.0804 22.4242L29.7738 21.9084ZM29.9096 21.8344C29.9124 21.827 29.9167 21.8199 29.9207 21.8149C29.9239 21.8109 29.9238 21.8122 29.915 21.8192C29.9057 21.8266 29.8909 21.837 29.8661 21.8526C29.8413 21.8683 29.8121 21.8857 29.7738 21.9084L30.0804 22.4242C30.1484 22.3837 30.2256 22.3386 30.2875 22.2896C30.3579 22.2338 30.4266 22.16 30.4685 22.0525L29.9096 21.8344ZM25.0781 26.4911C26.2688 24.8637 27.612 23.7142 28.6388 23.0126C29.1529 22.6613 29.5822 22.4259 29.8679 22.2995C30.0155 22.2342 30.107 22.2059 30.1465 22.199C30.1547 22.1975 30.1528 22.1985 30.1436 22.1985C30.1379 22.1985 30.1045 22.1986 30.0613 22.1806C30.011 22.1598 29.9385 22.1092 29.9066 22.0124C29.8784 21.9269 29.9002 21.8584 29.9096 21.8344L30.4685 22.0525C30.4856 22.0086 30.509 21.9234 30.4764 21.8246C30.4402 21.7145 30.3573 21.6538 30.2909 21.6263C30.2316 21.6017 30.1763 21.5985 30.1433 21.5985C30.1068 21.5985 30.0721 21.6028 30.0422 21.6081C29.9292 21.6281 29.7839 21.6806 29.6251 21.7508C29.2981 21.8956 28.8365 22.1507 28.3003 22.5172C27.2262 23.2511 25.8307 24.4464 24.5939 26.1368L25.0781 26.4911ZM31.2783 20.0803C27.1662 20.0803 24.536 23.0158 24.536 26.3139H25.136C25.136 23.3594 27.4853 20.6803 31.2783 20.6803L31.2783 20.0803ZM32.6386 20.1986C32.2075 20.121 31.7537 20.0803 31.2783 20.0803L31.2783 20.6803C31.7194 20.6803 32.1376 20.718 32.5323 20.7891L32.6386 20.1986ZM37.4167 18.9304C36.5571 18.5099 35.0039 18.5136 32.4185 20.2445L32.7523 20.7431C35.271 19.0568 36.5811 19.1896 37.1531 19.4694L37.4167 18.9304ZM37.6707 22.5613C37.7279 22.532 37.7636 22.4911 37.775 22.4779C37.7921 22.4582 37.8062 22.4381 37.8172 22.4214C37.8395 22.3875 37.8617 22.3477 37.8827 22.3062C37.9254 22.2219 37.9735 22.1111 38.0213 21.9826C38.1167 21.7259 38.2166 21.3823 38.2668 21.0151C38.3633 20.3106 38.291 19.3581 37.4168 18.9304L37.1531 19.4694C37.6482 19.7116 37.7626 20.2745 37.6724 20.9337C37.6293 21.2485 37.5424 21.5489 37.4589 21.7736C37.4171 21.8859 37.3778 21.9752 37.3475 22.0349C37.3321 22.0654 37.3214 22.0835 37.3161 22.0915C37.3133 22.0957 37.315 22.0926 37.321 22.0856C37.3215 22.0851 37.3476 22.0527 37.3971 22.0274L37.6707 22.5613ZM37.2771 21.9662C37.2579 22.0472 37.2384 22.1286 37.2289 22.1867C37.2256 22.2068 37.2159 22.264 37.2235 22.3231C37.2258 22.3405 37.2384 22.4516 37.3408 22.5314C37.479 22.639 37.6242 22.5852 37.6707 22.5613L37.3971 22.0274C37.4361 22.0073 37.5756 21.9537 37.7095 22.058C37.7627 22.0994 37.7885 22.1485 37.8005 22.178C37.8126 22.2079 37.8169 22.233 37.8186 22.2461C37.8236 22.2851 37.8169 22.3089 37.821 22.2839C37.8262 22.2519 37.8392 22.1962 37.8609 22.1045L37.2771 21.9662ZM37.1088 19.9532C37.3453 20.1247 37.4445 20.442 37.4428 20.8601C37.4411 21.2692 37.3427 21.6894 37.2771 21.9662L37.8609 22.1045C37.925 21.834 38.0408 21.35 38.0428 20.8626C38.0447 20.3842 37.937 19.8126 37.461 19.4675L37.1088 19.9532ZM33.2698 20.8541C33.6979 20.5921 34.4035 20.1615 35.1493 19.9039C35.9095 19.6414 36.6116 19.5927 37.1088 19.9532L37.461 19.4675C36.713 18.9251 35.755 19.0599 34.9535 19.3368C34.1376 19.6186 33.3799 20.0833 32.9566 20.3423L33.2698 20.8541ZM33.2086 20.8915C33.2283 20.8795 33.2487 20.867 33.2698 20.8541L32.9566 20.3423C32.9355 20.3552 32.9153 20.3676 32.8959 20.3794L33.2086 20.8915ZM37.8339 26.4734C37.8339 23.6769 36.151 21.1005 33.125 20.3444L32.9796 20.9265C35.71 21.6088 37.2339 23.9219 37.2339 26.4734H37.8339ZM37.8339 27.271V26.4734H37.2339V27.271H37.8339ZM29.3798 27.571H37.5339V26.971H29.3798V27.571ZM31.3717 29.2679C30.8398 29.2679 30.4305 29.1115 30.1515 28.8128C29.8698 28.5112 29.6798 28.0208 29.6798 27.271H29.0798C29.0798 28.1162 29.2944 28.7742 29.713 29.2223C30.1343 29.6733 30.7209 29.8679 31.3717 29.8679V29.2679ZM31.3717 23.6152C31.9454 23.6152 32.3412 23.8217 32.5982 24.1237C32.861 24.4325 33.0013 24.8687 33.0013 25.3568H33.6013C33.6013 24.7604 33.4303 24.1757 33.0551 23.7348C32.6741 23.2871 32.1051 23.0152 31.3717 23.0152V23.6152ZM29.6176 25.3568C29.6176 24.8474 29.7826 24.4152 30.0715 24.1125C30.3582 23.8121 30.7897 23.6152 31.3717 23.6152V23.0152C30.6466 23.0152 30.051 23.2649 29.6374 23.6982C29.2261 24.1292 29.0176 24.7178 29.0176 25.3568H29.6176ZM33.3013 25.0568H29.3176V25.6568H33.3013V25.0568Z" fill="white" fill-opacity="0.7" style="mix-blend-mode:soft-light" mask="url(#path-12-inside-4_3_36)"/>
<mask id="path-14-outside-5_3_36" maskUnits="userSpaceOnUse" x="23" y="18" width="16" height="17" fill="black">
<rect fill="white" x="23" y="18" width="16" height="17"/>
<path fill-rule="evenodd" clip-rule="evenodd" d="M31.3717 29.5679C32.5543 29.5679 33.1768 28.4832 33.1768 28.1642H37.4405C37.4405 28.9936 35.9363 32.439 31.3094 32.439C29.0375 32.439 26.7344 31.482 25.8941 29.7593L25.8319 29.855C23.8401 34.0022 27.0768 33.7151 29.4732 32.4709C29.4901 32.4632 29.5096 32.454 29.5307 32.4441C29.6505 32.3878 29.8202 32.3079 29.8467 32.3433C29.8842 32.3934 29.753 32.4907 29.6454 32.5704C29.6161 32.5921 29.5885 32.6126 29.5666 32.6304C27.0754 34.6566 21.4364 35.4269 25.3339 27.7176L25.3354 27.7144C25.5744 27.1944 25.8338 26.6302 26.7656 25.2931C28.6407 22.9311 29.5318 22.4013 29.9271 22.1663C30.0764 22.0776 30.1549 22.0309 30.189 21.9434C30.3135 21.6244 27.2635 22.9962 24.836 26.3139C24.836 23.1876 27.3258 20.3803 31.2783 20.3803C31.7365 20.3803 32.1726 20.4195 32.5854 20.4938C35.1375 18.7852 36.5691 18.8497 37.2849 19.1999C38.6543 19.8698 37.6584 22.2305 37.5339 22.2943C37.504 22.3096 37.5281 22.208 37.569 22.0353C37.6987 21.4881 37.9974 20.2269 37.2849 19.7103C36.0397 18.8075 33.9647 20.0772 33.1132 20.5982C33.0921 20.6111 33.0718 20.6235 33.0523 20.6355C35.9305 21.3547 37.5339 23.7994 37.5339 26.4734V27.271H29.3798C29.3798 28.866 30.189 29.5679 31.3717 29.5679ZM33.3013 25.3568C33.3013 24.2722 32.6788 23.3152 31.3717 23.3152C30.0645 23.3152 29.3176 24.2084 29.3176 25.3568H33.3013Z"/>
</mask>
<path fill-rule="evenodd" clip-rule="evenodd" d="M31.3717 29.5679C32.5543 29.5679 33.1768 28.4832 33.1768 28.1642H37.4405C37.4405 28.9936 35.9363 32.439 31.3094 32.439C29.0375 32.439 26.7344 31.482 25.8941 29.7593L25.8319 29.855C23.8401 34.0022 27.0768 33.7151 29.4732 32.4709C29.4901 32.4632 29.5096 32.454 29.5307 32.4441C29.6505 32.3878 29.8202 32.3079 29.8467 32.3433C29.8842 32.3934 29.753 32.4907 29.6454 32.5704C29.6161 32.5921 29.5885 32.6126 29.5666 32.6304C27.0754 34.6566 21.4364 35.4269 25.3339 27.7176L25.3354 27.7144C25.5744 27.1944 25.8338 26.6302 26.7656 25.2931C28.6407 22.9311 29.5318 22.4013 29.9271 22.1663C30.0764 22.0776 30.1549 22.0309 30.189 21.9434C30.3135 21.6244 27.2635 22.9962 24.836 26.3139C24.836 23.1876 27.3258 20.3803 31.2783 20.3803C31.7365 20.3803 32.1726 20.4195 32.5854 20.4938C35.1375 18.7852 36.5691 18.8497 37.2849 19.1999C38.6543 19.8698 37.6584 22.2305 37.5339 22.2943C37.504 22.3096 37.5281 22.208 37.569 22.0353C37.6987 21.4881 37.9974 20.2269 37.2849 19.7103C36.0397 18.8075 33.9647 20.0772 33.1132 20.5982C33.0921 20.6111 33.0718 20.6235 33.0523 20.6355C35.9305 21.3547 37.5339 23.7994 37.5339 26.4734V27.271H29.3798C29.3798 28.866 30.189 29.5679 31.3717 29.5679ZM33.3013 25.3568C33.3013 24.2722 32.6788 23.3152 31.3717 23.3152C30.0645 23.3152 29.3176 24.2084 29.3176 25.3568H33.3013Z" fill="url(#paint6_linear_3_36)" fill-opacity="0.7" style="mix-blend-mode:overlay"/>
<path d="M33.1768 28.1642V27.8642H32.8768V28.1642H33.1768ZM37.4405 28.1642H37.7405V27.8642H37.4405V28.1642ZM25.8941 29.7593L26.1638 29.6278L25.9315 29.1516L25.6427 29.5957L25.8941 29.7593ZM25.8319 29.855L25.5804 29.6914L25.5699 29.7077L25.5615 29.7251L25.8319 29.855ZM29.4732 32.4709L29.3489 32.1979L29.3419 32.2011L29.335 32.2046L29.4732 32.4709ZM29.5307 32.4441L29.4029 32.1727L29.4029 32.1727L29.5307 32.4441ZM29.8467 32.3433L30.0869 32.1636L30.0869 32.1636L29.8467 32.3433ZM29.6454 32.5704L29.8241 32.8114L29.8241 32.8114L29.6454 32.5704ZM29.5666 32.6304L29.3773 32.3977L29.3773 32.3977L29.5666 32.6304ZM25.3339 27.7176L25.6019 27.853L25.6065 27.8429L25.3339 27.7176ZM25.3354 27.7144L25.608 27.8397L25.608 27.8397L25.3354 27.7144ZM26.7656 25.2931L26.5306 25.1066L26.5248 25.1139L26.5194 25.1216L26.7656 25.2931ZM29.9271 22.1663L30.0804 22.4242L30.0804 22.4242L29.9271 22.1663ZM30.189 21.9434L29.9096 21.8344L29.9096 21.8344L30.189 21.9434ZM24.836 26.3139H24.536V27.232L25.0781 26.4911L24.836 26.3139ZM31.2783 20.3803L31.2783 20.6803L31.2783 20.6803L31.2783 20.3803ZM32.5854 20.4938L32.5323 20.7891L32.6516 20.8105L32.7523 20.7431L32.5854 20.4938ZM37.2849 19.1999L37.4168 18.9304L37.4167 18.9304L37.2849 19.1999ZM37.5339 22.2943L37.3971 22.0274L37.3971 22.0274L37.5339 22.2943ZM37.569 22.0353L37.2771 21.9662L37.2771 21.9662L37.569 22.0353ZM37.2849 19.7103L37.1088 19.9532L37.1088 19.9532L37.2849 19.7103ZM33.1132 20.5982L32.9566 20.3423L32.9566 20.3423L33.1132 20.5982ZM33.0523 20.6355L32.8959 20.3794L32.2844 20.7528L32.9796 20.9265L33.0523 20.6355ZM37.5339 27.271V27.571H37.8339V27.271H37.5339ZM29.3798 27.271V26.971H29.0798V27.271H29.3798ZM33.3013 25.3568V25.6568H33.6013V25.3568H33.3013ZM29.3176 25.3568H29.0176V25.6568H29.3176V25.3568ZM32.8768 28.1642C32.8768 28.1611 32.8764 28.1799 32.8621 28.2244C32.8488 28.2656 32.8271 28.3182 32.7953 28.3788C32.7317 28.5002 32.634 28.6419 32.503 28.7762C32.2418 29.0439 31.8639 29.2679 31.3717 29.2679V29.8679C32.0621 29.8679 32.5867 29.5496 32.9325 29.1952C33.1049 29.0184 33.2367 28.8291 33.3267 28.6574C33.411 28.4967 33.4768 28.317 33.4768 28.1642H32.8768ZM37.4405 27.8642H33.1768V28.4642H37.4405V27.8642ZM31.3094 32.739C33.7055 32.739 35.3144 31.8438 36.3234 30.8236C36.8253 30.3161 37.1764 29.7802 37.4031 29.313C37.6251 28.8555 37.7405 28.4369 37.7405 28.1642H37.1405C37.1405 28.3062 37.0679 28.6293 36.8633 29.0511C36.6633 29.4632 36.3493 29.9442 35.8968 30.4017C34.9969 31.3115 33.5402 32.139 31.3094 32.139V32.739ZM25.6245 29.8908C26.5372 31.7618 28.9837 32.739 31.3094 32.739V32.139C29.0913 32.139 26.9317 31.2021 26.1638 29.6278L25.6245 29.8908ZM26.0834 30.0185L26.1456 29.9228L25.6427 29.5957L25.5804 29.6914L26.0834 30.0185ZM29.335 32.2046C28.7544 32.5061 28.1271 32.7471 27.5473 32.8776C26.96 33.0097 26.4568 33.0203 26.1032 32.9005C25.9314 32.8424 25.8015 32.7559 25.7087 32.6428C25.6163 32.5303 25.5466 32.3745 25.5217 32.1545C25.4704 31.702 25.6125 31.0047 26.1023 29.9849L25.5615 29.7251C25.0554 30.7789 24.8551 31.6008 24.9255 32.222C24.9613 32.5389 25.0684 32.8085 25.245 33.0236C25.4212 33.2382 25.6527 33.3815 25.9108 33.4688C26.4169 33.6402 27.0477 33.6049 27.679 33.4629C28.3179 33.3192 28.9938 33.0578 29.6114 32.7372L29.335 32.2046ZM29.4029 32.1727C29.3814 32.1828 29.3638 32.1911 29.3489 32.1979L29.5975 32.7439C29.6165 32.7353 29.6378 32.7252 29.6584 32.7156L29.4029 32.1727ZM30.0869 32.1636C30.0176 32.071 29.9229 32.0456 29.8742 32.0384C29.8243 32.031 29.7813 32.0359 29.7563 32.0398C29.7046 32.048 29.6547 32.0649 29.6191 32.0781C29.5442 32.106 29.4597 32.146 29.4029 32.1727L29.6584 32.7156C29.7215 32.6859 29.7817 32.6578 29.8283 32.6405C29.8534 32.6311 29.8583 32.6312 29.8497 32.6325C29.8462 32.6331 29.8217 32.6371 29.7866 32.6319C29.7528 32.6269 29.6691 32.6068 29.6065 32.523L30.0869 32.1636ZM29.8241 32.8114C29.8725 32.7755 29.9507 32.7182 30.0099 32.6605C30.0377 32.6334 30.083 32.5859 30.1145 32.5229C30.1472 32.4576 30.194 32.3067 30.0869 32.1636L29.6065 32.523C29.5684 32.4722 29.5518 32.4121 29.5533 32.3559C29.5547 32.306 29.5699 32.2705 29.5779 32.2545C29.592 32.2263 29.6048 32.2175 29.591 32.231C29.567 32.2543 29.5258 32.2856 29.4668 32.3294L29.8241 32.8114ZM29.7559 32.8631C29.7714 32.8505 29.793 32.8345 29.8241 32.8114L29.4668 32.3294C29.4392 32.3498 29.4056 32.3747 29.3773 32.3977L29.7559 32.8631ZM25.0662 27.5822C24.084 29.5252 23.6798 30.9752 23.7008 32.0285C23.7113 32.5597 23.8303 33.0013 24.0488 33.3526C24.2686 33.706 24.5782 33.9503 24.9384 34.1015C25.6464 34.3985 26.5419 34.3351 27.3896 34.0899C28.245 33.8424 29.1008 33.3959 29.7559 32.8631L29.3773 32.3977C28.7867 32.878 28.0035 33.2876 27.2228 33.5135C26.4342 33.7417 25.6966 33.7689 25.1706 33.5482C24.9139 33.4405 24.7063 33.2737 24.5583 33.0358C24.409 32.7957 24.3096 32.4656 24.3007 32.0166C24.2826 31.1094 24.6352 29.7647 25.6017 27.8529L25.0662 27.5822ZM25.0629 27.589L25.0614 27.5923L25.6065 27.8429L25.608 27.8397L25.0629 27.589ZM26.5194 25.1216C25.5765 26.4748 25.3085 27.0548 25.0629 27.5891L25.608 27.8397C25.8404 27.3341 26.0912 26.7856 27.0117 25.4646L26.5194 25.1216ZM29.7738 21.9084C29.3418 22.1652 28.4242 22.7213 26.5306 25.1066L27.0005 25.4796C28.8572 23.1408 29.7218 22.6374 30.0804 22.4242L29.7738 21.9084ZM29.9096 21.8344C29.9124 21.827 29.9167 21.8199 29.9207 21.8149C29.9239 21.8109 29.9238 21.8122 29.915 21.8192C29.9057 21.8266 29.8909 21.837 29.8661 21.8526C29.8413 21.8683 29.8121 21.8857 29.7738 21.9084L30.0804 22.4242C30.1484 22.3837 30.2256 22.3386 30.2875 22.2896C30.3579 22.2338 30.4266 22.16 30.4685 22.0525L29.9096 21.8344ZM25.0781 26.4911C26.2688 24.8637 27.612 23.7142 28.6388 23.0126C29.1529 22.6613 29.5822 22.4259 29.8679 22.2995C30.0155 22.2342 30.107 22.2059 30.1465 22.199C30.1547 22.1975 30.1528 22.1985 30.1436 22.1985C30.1379 22.1985 30.1045 22.1986 30.0613 22.1806C30.011 22.1598 29.9385 22.1092 29.9066 22.0124C29.8784 21.9269 29.9002 21.8584 29.9096 21.8344L30.4685 22.0525C30.4856 22.0086 30.509 21.9234 30.4764 21.8246C30.4402 21.7145 30.3573 21.6538 30.2909 21.6263C30.2316 21.6017 30.1763 21.5985 30.1433 21.5985C30.1068 21.5985 30.0721 21.6028 30.0422 21.6081C29.9292 21.6281 29.7839 21.6806 29.6251 21.7508C29.2981 21.8956 28.8365 22.1507 28.3003 22.5172C27.2262 23.2511 25.8307 24.4464 24.5939 26.1368L25.0781 26.4911ZM31.2783 20.0803C27.1662 20.0803 24.536 23.0158 24.536 26.3139H25.136C25.136 23.3594 27.4853 20.6803 31.2783 20.6803L31.2783 20.0803ZM32.6386 20.1986C32.2075 20.121 31.7537 20.0803 31.2783 20.0803L31.2783 20.6803C31.7194 20.6803 32.1376 20.718 32.5323 20.7891L32.6386 20.1986ZM37.4167 18.9304C36.5571 18.5099 35.0039 18.5136 32.4185 20.2445L32.7523 20.7431C35.271 19.0568 36.5811 19.1896 37.1531 19.4694L37.4167 18.9304ZM37.6707 22.5613C37.7279 22.532 37.7636 22.4911 37.775 22.4779C37.7921 22.4582 37.8062 22.4381 37.8172 22.4214C37.8395 22.3875 37.8617 22.3477 37.8827 22.3062C37.9254 22.2219 37.9735 22.1111 38.0213 21.9826C38.1167 21.7259 38.2166 21.3823 38.2668 21.0151C38.3633 20.3106 38.291 19.3581 37.4168 18.9304L37.1531 19.4694C37.6482 19.7116 37.7626 20.2745 37.6724 20.9337C37.6293 21.2485 37.5424 21.5489 37.4589 21.7736C37.4171 21.8859 37.3778 21.9752 37.3475 22.0349C37.3321 22.0654 37.3214 22.0835 37.3161 22.0915C37.3133 22.0957 37.315 22.0926 37.321 22.0856C37.3215 22.0851 37.3476 22.0527 37.3971 22.0274L37.6707 22.5613ZM37.2771 21.9662C37.2579 22.0472 37.2384 22.1286 37.2289 22.1867C37.2256 22.2068 37.2159 22.264 37.2235 22.3231C37.2258 22.3405 37.2384 22.4516 37.3408 22.5314C37.479 22.639 37.6242 22.5852 37.6707 22.5613L37.3971 22.0274C37.4361 22.0073 37.5756 21.9537 37.7095 22.058C37.7627 22.0994 37.7885 22.1485 37.8005 22.178C37.8126 22.2079 37.8169 22.233 37.8186 22.2461C37.8236 22.2851 37.8169 22.3089 37.821 22.2839C37.8262 22.2519 37.8392 22.1962 37.8609 22.1045L37.2771 21.9662ZM37.1088 19.9532C37.3453 20.1247 37.4445 20.442 37.4428 20.8601C37.4411 21.2692 37.3427 21.6894 37.2771 21.9662L37.8609 22.1045C37.925 21.834 38.0408 21.35 38.0428 20.8626C38.0447 20.3842 37.937 19.8126 37.461 19.4675L37.1088 19.9532ZM33.2698 20.8541C33.6979 20.5921 34.4035 20.1615 35.1493 19.9039C35.9095 19.6414 36.6116 19.5927 37.1088 19.9532L37.461 19.4675C36.713 18.9251 35.755 19.0599 34.9535 19.3368C34.1376 19.6186 33.3799 20.0833 32.9566 20.3423L33.2698 20.8541ZM33.2086 20.8915C33.2283 20.8795 33.2487 20.867 33.2698 20.8541L32.9566 20.3423C32.9355 20.3552 32.9153 20.3676 32.8959 20.3794L33.2086 20.8915ZM37.8339 26.4734C37.8339 23.6769 36.151 21.1005 33.125 20.3444L32.9796 20.9265C35.71 21.6088 37.2339 23.9219 37.2339 26.4734H37.8339ZM37.8339 27.271V26.4734H37.2339V27.271H37.8339ZM29.3798 27.571H37.5339V26.971H29.3798V27.571ZM31.3717 29.2679C30.8398 29.2679 30.4305 29.1115 30.1515 28.8128C29.8698 28.5112 29.6798 28.0208 29.6798 27.271H29.0798C29.0798 28.1162 29.2944 28.7742 29.713 29.2223C30.1343 29.6733 30.7209 29.8679 31.3717 29.8679V29.2679ZM31.3717 23.6152C31.9454 23.6152 32.3412 23.8217 32.5982 24.1237C32.861 24.4325 33.0013 24.8687 33.0013 25.3568H33.6013C33.6013 24.7604 33.4303 24.1757 33.0551 23.7348C32.6741 23.2871 32.1051 23.0152 31.3717 23.0152V23.6152ZM29.6176 25.3568C29.6176 24.8474 29.7826 24.4152 30.0715 24.1125C30.3582 23.8121 30.7897 23.6152 31.3717 23.6152V23.0152C30.6466 23.0152 30.051 23.2649 29.6374 23.6982C29.2261 24.1292 29.0176 24.7178 29.0176 25.3568H29.6176ZM33.3013 25.0568H29.3176V25.6568H33.3013V25.0568Z" fill="#4E84D3" mask="url(#path-14-outside-5_3_36)"/>
<defs>
<filter id="filter0_d_3_36" x="2.15102" y="12.64" width="29.7112" height="8.35999" filterUnits="userSpaceOnUse" color-interpolation-filters="sRGB">
<feFlood flood-opacity="0" result="BackgroundImageFix"/>
<feColorMatrix in="SourceAlpha" type="matrix" values="0 0 0 0 0 0 0 0 0 0 0 0 0 0 0 0 0 0 127 0" result="hardAlpha"/>
<feOffset dy="1"/>
<feGaussianBlur stdDeviation="0.5"/>
<feComposite in2="hardAlpha" operator="out"/>
<feColorMatrix type="matrix" values="0 0 0 0 0.305882 0 0 0 0 0.517647 0 0 0 0 0.827451 0 0 0 0.5 0"/>
<feBlend mode="normal" in2="BackgroundImageFix" result="effect1_dropShadow_3_36"/>
<feBlend mode="normal" in="SourceGraphic" in2="effect1_dropShadow_3_36" result="shape"/>
</filter>
<filter id="filter1_di_3_36" x="20.9" y="15.8998" width="22.1998" height="23.2002" filterUnits="userSpaceOnUse" color-interpolation-filters="sRGB">
<feFlood flood-opacity="0" result="BackgroundImageFix"/>
<feColorMatrix in="SourceAlpha" type="matrix" values="0 0 0 0 0 0 0 0 0 0 0 0 0 0 0 0 0 0 127 0" result="hardAlpha"/>
<feOffset dx="1" dy="1"/>
<feGaussianBlur stdDeviation="2"/>
<feComposite in2="hardAlpha" operator="out"/>
<feColorMatrix type="matrix" values="0 0 0 0 0.339863 0 0 0 0 0.560895 0 0 0 0 0.860402 0 0 0 0.6 0"/>
<feBlend mode="normal" in2="BackgroundImageFix" result="effect1_dropShadow_3_36"/>
<feBlend mode="normal" in="SourceGraphic" in2="effect1_dropShadow_3_36" result="shape"/>
<feColorMatrix in="SourceAlpha" type="matrix" values="0 0 0 0 0 0 0 0 0 0 0 0 0 0 0 0 0 0 127 0" result="hardAlpha"/>
<feOffset dx="-0.5" dy="-0.5"/>
<feGaussianBlur stdDeviation="0.75"/>
<feComposite in2="hardAlpha" operator="arithmetic" k2="-1" k3="1"/>
<feColorMatrix type="matrix" values="0 0 0 0 1 0 0 0 0 1 0 0 0 0 1 0 0 0 1 0"/>
<feBlend mode="normal" in2="shape" result="effect2_innerShadow_3_36"/>
</filter>
<linearGradient id="paint0_linear_3_36" x1="17" y1="1" x2="17" y2="25" gradientUnits="userSpaceOnUse">
<stop stop-color="#FEFEFE"/>
<stop offset="0.33" stop-color="#FBFCFD"/>
<stop offset="1" stop-color="#C7D7E9"/>
</linearGradient>
<linearGradient id="paint1_linear_3_36" x1="1" y1="13" x2="33" y2="13" gradientUnits="userSpaceOnUse">
<stop stop-color="#4E84D3"/>
<stop offset="0.5" stop-color="#6FAEF3"/>
<stop offset="1" stop-color="#4E84D3"/>
</linearGradient>
<linearGradient id="paint2_linear_3_36" x1="17" y1="4" x2="17" y2="25" gradientUnits="userSpaceOnUse">
<stop stop-color="#FEFEFE"/>
<stop offset="0.33" stop-color="#FBFCFD"/>
<stop offset="1" stop-color="#C7D7E9"/>
</linearGradient>
<linearGradient id="paint3_linear_3_36" x1="1" y1="3" x2="33" y2="3" gradientUnits="userSpaceOnUse">
<stop stop-color="#4E84D3"/>
<stop offset="0.5" stop-color="#6FAEF3"/>
<stop offset="1" stop-color="#4E84D3"/>
</linearGradient>
<linearGradient id="paint4_linear_3_36" x1="1" y1="6" x2="33" y2="6" gradientUnits="userSpaceOnUse">
<stop stop-color="#386CB3"/>
<stop offset="0.5" stop-color="#548FCF"/>
<stop offset="1" stop-color="#386CB3"/>
</linearGradient>
<linearGradient id="paint5_linear_3_36" x1="35.3242" y1="31.2267" x2="26.2796" y2="22.2213" gradientUnits="userSpaceOnUse">
<stop stop-color="#6FAEF3"/>
<stop offset="0.132201" stop-color="#578FDB"/>
<stop offset="0.5" stop-color="#4E84D3"/>
<stop offset="1" stop-color="#6FAEF3"/>
</linearGradient>
<linearGradient id="paint6_linear_3_36" x1="35.5" y1="31" x2="27" y2="22" gradientUnits="userSpaceOnUse">
<stop offset="0.024309" stop-color="white"/>
<stop offset="0.340245" stop-color="white" stop-opacity="0.0471926"/>
<stop offset="0.879895" stop-color="white" stop-opacity="0"/>
<stop offset="1" stop-color="white"/>
</linearGradient>
</defs>
</svg>
